<?xml version="1.0" standalone="no"?><!DOCTYPE svg PUBLIC "-//W3C//DTD SVG 1.1//EN" "http://www.w3.org/Graphics/SVG/1.1/DTD/svg11.dtd"><svg t="1590042741668" class="icon" viewBox="0 0 1024 1024" version="1.1" xmlns="http://www.w3.org/2000/svg" p-id="1526" xmlns:xlink="http://www.w3.org/1999/xlink" width="200" height="200"><defs><style type="text/css"></style></defs><path d="M878.1824 244.1216c-30.583467 100.352-321.536 224.4608-364.270933 599.2448C471.04 468.445867 179.950933 344.337067 149.640533 244.1216 120.149333 147.0464 291.089067 11.0592 512.546133 11.0592c221.457067 0 395.127467 136.123733 365.636267 233.0624z" fill="#EF8300" p-id="1527"></path><path d="M1014.442667 466.807467c-149.640533 64.443733-380.381867 164.113067-493.021867 494.114133C586.683733 528.384 872.584533 425.028267 990.8224 339.421867c13.1072 40.277333 21.162667 83.012267 23.620267 127.3856z" fill="#E9EBEE" p-id="1528"></path><path d="M1008.4352 573.986133c-6.417067 41.915733-18.432 82.056533-34.952533 119.6032-137.762133 29.9008-292.4544 99.5328-437.8624 267.605334C677.205333 706.423467 858.248533 616.448 1008.4352 573.986133z" fill="#E9EBEE" p-id="1529"></path><path d="M922.692267 783.428267c-89.975467 127.112533-237.704533 210.261333-404.957867 211.3536 0.136533-0.4096 0.4096-0.8192 0.546133-1.2288 145.544533-125.474133 282.077867-185.412267 404.411734-210.1248zM510.225067 994.781867c-167.253333-1.2288-315.255467-84.3776-405.0944-211.3536 122.4704 24.849067 258.8672 84.7872 404.548266 210.397866 0.273067 0.136533 0.4096 0.546133 0.546134 0.955734z" fill="#E9EBEE" p-id="1530"></path><path d="M491.793067 960.375467C346.5216 792.9856 192.1024 723.080533 54.340267 693.4528c-16.657067-37.6832-28.535467-77.687467-34.952534-119.466667 149.9136 42.461867 330.820267 132.3008 472.405334 386.389334z" fill="#E9EBEE" p-id="1531"></path><path d="M506.402133 960.785067C393.762133 630.920533 163.0208 531.2512 13.380267 466.807467c2.4576-44.2368 10.513067-87.108267 23.7568-127.522134 118.237867 85.879467 404.002133 189.2352 469.265066 621.499734z" fill="#E9EBEE" p-id="1532"></path></svg>