<svg xmlns="http://www.w3.org/2000/svg" xmlns:xlink="http://www.w3.org/1999/xlink" width="80" height="80" viewBox="0 0 80 80">
  <defs>
    <style>
      .cls-1 {
        fill: #fff;
      }

      .cls-2 {
        clip-path: url(#clip-path);
      }

      .cls-3 {
        fill: rgba(0,207,255,0.3);
      }

      .cls-4 {
        fill: #00cfff;
      }
    </style>
    <clipPath id="clip-path">
      <rect id="矩形_4124" data-name="矩形 4124" class="cls-1" width="80" height="80" transform="translate(917 994)"/>
    </clipPath>
  </defs>
  <g id="隐患排查1" class="cls-2" transform="translate(-917 -994)">
    <g id="隐患排查1-2" data-name="隐患排查1" transform="translate(-2.95 134.049)">
      <circle id="椭圆_969" data-name="椭圆 969" class="cls-3" cx="16" cy="16" r="16" transform="translate(966.778 903.772)"/>
      <path id="联合_454" data-name="联合 454" class="cls-4" d="M-6377,7457.83l-2.938-2.938A7.952,7.952,0,0,1-6384,7456a8.008,8.008,0,0,1-8-8,8.008,8.008,0,0,1,8-8,8.01,8.01,0,0,1,8,8,7.949,7.949,0,0,1-1.111,4.063l2.938,2.938a2,2,0,0,1,0,2.828,1.992,1.992,0,0,1-1.414.585A2,2,0,0,1-6377,7457.83Zm-11-9.829a4,4,0,0,0,4,4,4,4,0,0,0,4-4,4.006,4.006,0,0,0-4-4A4,4,0,0,0-6388,7448Z" transform="translate(7365.777 -6529.229)"/>
      <path id="减去_327" data-name="减去 327" class="cls-4" d="M-6347.457,7503h-40.586a3.958,3.958,0,0,1-3.468-2.008,3.951,3.951,0,0,1,.011-4l32.042-55.049a3.961,3.961,0,0,1,3.457-1.988,3.962,3.962,0,0,1,3.459,1.988l19.342,33.23a19.9,19.9,0,0,0-3.948,1.236l-17.125-29.434a1.98,1.98,0,0,0-1.728-.994,1.981,1.981,0,0,0-1.729.994l-28.521,49.023a1.986,1.986,0,0,0-.005,2,1.982,1.982,0,0,0,1.733,1h35.75a19.871,19.871,0,0,0,1.317,4Z" transform="translate(7312 -6574.999)"/>
      <path id="联合_456" data-name="联合 456" class="cls-4" d="M0,34.695a3.675,3.675,0,0,1,3.7-3.652,3.652,3.652,0,1,1,0,7.3A3.674,3.674,0,0,1,0,34.695Zm0-11V3.7a3.7,3.7,0,0,1,7.393,0v20a3.7,3.7,0,1,1-7.393,0Z" transform="translate(952.12 882.122)"/>
      <path id="减去_331" data-name="减去 331" class="cls-3" d="M-6344.458,7507h-40.585a3.959,3.959,0,0,1-3.468-2.007,3.957,3.957,0,0,1,.011-4l32.042-55.048a3.963,3.963,0,0,1,3.458-1.988,3.962,3.962,0,0,1,3.458,1.988l19.342,33.229a20.049,20.049,0,0,0-16.022,19.6,19.839,19.839,0,0,0,1.765,8.226Z" transform="translate(7309.001 -6579)"/>
    </g>
  </g>
</svg>
