<svg xmlns="http://www.w3.org/2000/svg" xmlns:xlink="http://www.w3.org/1999/xlink" width="80" height="80" viewBox="0 0 80 80">
  <defs>
    <style>
      .cls-1 {
        fill: #fff;
      }

      .cls-2 {
        clip-path: url(#clip-path);
      }

      .cls-3 {
        fill: rgba(0,207,255,0.3);
      }

      .cls-4 {
        fill: #00cfff;
      }
    </style>
    <clipPath id="clip-path">
      <rect id="矩形_4129" data-name="矩形 4129" class="cls-1" width="80" height="80" transform="translate(1439 1174)"/>
    </clipPath>
  </defs>
  <g id="电子沙盘1" class="cls-2" transform="translate(-1439 -1174)">
    <g id="电子沙盘1-2" data-name="电子沙盘1" transform="translate(-3.974 57.002)">
      <path id="减去_205" data-name="减去 205" class="cls-3" d="M-6337.093,7506.031l-3.031-54.366,14.981-6.293a5.326,5.326,0,0,1,1.808-.326,3.541,3.541,0,0,1,1.915.51,4.257,4.257,0,0,1,1.9,2.615l.21,1.294a14.591,14.591,0,0,0-3.667-.465c-7.72,0-14,6.019-14,13.417.036,6.284,3.84,11.546,7.026,14.854a39.1,39.1,0,0,0,6.974,5.73,37.313,37.313,0,0,0,8.014-6.813l2.965,18.227a4.627,4.627,0,0,1-.618,2.743,3.952,3.952,0,0,1-1.875,1.562l-22.6,7.313Zm-1.021-.078v0h0l-31.7-11.144,5.843-54.778,22.99,11.7,2.871,54.222Zm-49.906-4.362a3.841,3.841,0,0,1-2.54-.908,4.013,4.013,0,0,1-1.4-3.652l6.67-45.672a5.155,5.155,0,0,1,.765-1.89,5.1,5.1,0,0,1,1.844-1.422l17.7-8.047-6,55-15.562,6.342A4.47,4.47,0,0,1-6388.021,7501.591Z" transform="translate(7834.975 -6317)"/>
      <circle id="椭圆_855" data-name="椭圆 855" class="cls-4" cx="4" cy="4" r="4" transform="translate(1456 1136)"/>
      <path id="减去_207" data-name="减去 207" class="cls-4" d="M-6382,7464.685h0a28.023,28.023,0,0,1-4.98-4.16,20.953,20.953,0,0,1-3.436-4.723,13.308,13.308,0,0,1-1.583-6.061,9.883,9.883,0,0,1,10-9.74,9.883,9.883,0,0,1,10,9.74,13.787,13.787,0,0,1-1.623,6.141,20.734,20.734,0,0,1-3.431,4.714,26.9,26.9,0,0,1-4.945,4.089Zm0-18.685a4,4,0,0,0-4,4,4.005,4.005,0,0,0,4,4,4.005,4.005,0,0,0,4-4A4,4,0,0,0-6382,7446Z" transform="translate(7894 -6304)"/>
      <path id="联合_376" data-name="联合 376" class="cls-4" d="M-6355.683,7470.2a16.766,16.766,0,0,0,2.521-.379c1.281-.306,2.742-.833,2.742-.833l1.463,3.716s-1.848.651-3.168.975a31.1,31.1,0,0,1-3.247.537Zm-7.292,2.741a17.336,17.336,0,0,1-3.089-1.854l2.506-3.226a5.647,5.647,0,0,0,2.06,1.407c1.133.377,2.4.823,2.4.823l-.79,3.812A29.993,29.993,0,0,1-6362.975,7472.944Zm16.064-5.47,2.481-1.373,2.3,3.247-2.958,1.638Zm-24.334-1.885a20.333,20.333,0,0,1-1.716-2.7l3.459-2s1.163,1.955,1.585,2.455,1.611,2.112,1.611,2.112l-2.932,2.641S-6370.427,7466.591-6371.245,7465.589Zm-5.018-8.88c-.824-1.441-1.441-2.607-1.441-2.607l3.5-2.062s1.133,1.958,1.648,2.953,1.236,2.472,1.236,2.472l-3.639,1.819A26.955,26.955,0,0,0-6376.262,7456.709Zm-5.228-7.918a15.792,15.792,0,0,0-1.981-1.955l2.669-3.037s1.426,1.294,2.322,2.324,1.875,2.4,1.875,2.4l-3.17,2.35S-6380.592,7449.876-6381.49,7448.792Zm-7.025-4.646a7.17,7.17,0,0,0-2.217-.133l-1.268-3.776a15.2,15.2,0,0,1,3.723-.184,10.943,10.943,0,0,1,3.592,1.266l-1.745,3.514A10.256,10.256,0,0,0-6388.515,7444.146Z" transform="translate(7852.194 -6301.796)"/>
      <path id="减去_211" data-name="减去 211" class="cls-4" d="M-6337.1,7505.953h-1.011l-31.706-11.144-1.155.192-15.563,6.343a4.453,4.453,0,0,1-1.484.249,3.826,3.826,0,0,1-2.537-.908,4.009,4.009,0,0,1-1.4-3.652l6.67-45.672a5.126,5.126,0,0,1,.763-1.889,5.013,5.013,0,0,1,1.839-1.42l0,0,17.706-8.049h1.042l22.948,11.732.869-.073,14.972-6.284.007,0a5.334,5.334,0,0,1,1.8-.324,3.537,3.537,0,0,1,1.916.511,4.279,4.279,0,0,1,1.9,2.615l.211,1.3a14.579,14.579,0,0,0-3.232-.465,1.591,1.591,0,0,0-.521-.631,2.463,2.463,0,0,0-1.33-.373,2.545,2.545,0,0,0-.656.082l-15.458,6.584-.795.066-22.71-11.4h-.953l-15.505,7.032,0,0a4.632,4.632,0,0,0-1.683,1.3,4.608,4.608,0,0,0-.7,1.729l-5.572,42.179c-.025.138-.231,1.367.343,1.91a1,1,0,0,0,.7.213,5.393,5.393,0,0,0,1.741-.426l14.889-5.924,1.059-.177,31.025,11.2h.925l20.446-5.454a3.559,3.559,0,0,0,1.718-1.43,4.257,4.257,0,0,0,.563-2.507l-2.384-14.316c.866-.809,1.685-1.652,2.434-2.5l2.968,18.251a4.631,4.631,0,0,1-.616,2.743,4,4,0,0,1-1.875,1.559l-22.612,7.236Z" transform="translate(7835.001 -6317.001)"/>
      <path id="联合_378" data-name="联合 378" class="cls-4" d="M-6360.7,7503.977l-2.844-52.335,3.529.862,2.844,51.473Zm-32.75-10.292,6.351-52.428,3.6-.173-6.132,52.6Z" transform="translate(7856.016 -6317)"/>
    </g>
  </g>
</svg>
