<svg xmlns="http://www.w3.org/2000/svg" xmlns:xlink="http://www.w3.org/1999/xlink" width="80" height="80" viewBox="0 0 80 80">
  <defs>
    <style>
      .cls-1 {
        fill: #fff;
      }

      .cls-2 {
        clip-path: url(#clip-path);
      }

      .cls-3 {
        fill: rgba(0,207,255,0.3);
      }

      .cls-4 {
        fill: #00cfff;
      }
    </style>
    <clipPath id="clip-path">
      <rect id="矩形_4139" data-name="矩形 4139" class="cls-1" width="80" height="80" transform="translate(661 1376)"/>
    </clipPath>
  </defs>
  <g id="呼叫中心21" class="cls-2" transform="translate(-661 -1376)">
    <g id="呼叫中心21-2" data-name="呼叫中心21" transform="translate(277.999 289.999)">
      <path id="减去_343" data-name="减去 343" class="cls-3" d="M-6369,7488h-2a24.856,24.856,0,0,1-9.731-1.964,24.925,24.925,0,0,1-7.947-5.358,24.912,24.912,0,0,1-5.358-7.946A24.846,24.846,0,0,1-6396,7463v-2a24.844,24.844,0,0,1,1.965-9.731,24.918,24.918,0,0,1,5.358-7.946,24.929,24.929,0,0,1,7.947-5.357A24.856,24.856,0,0,1-6371,7436h2a24.857,24.857,0,0,1,9.731,1.964,24.916,24.916,0,0,1,7.946,5.357,24.914,24.914,0,0,1,5.358,7.946A24.844,24.844,0,0,1-6344,7461v2a24.756,24.756,0,0,1-2.544,11H-6352a8.009,8.009,0,0,0-8,8,8.005,8.005,0,0,0,1.02,3.912A24.825,24.825,0,0,1-6369,7488Z" transform="translate(6793 -6331)"/>
      <path id="联合_476" data-name="联合 476" class="cls-4" d="M-6318,7500v-24h4a4,4,0,0,1,4,4v16a4,4,0,0,1-4,4Zm-68,0a4,4,0,0,1-4-4v-16a4,4,0,0,1,4-4h0a35.79,35.79,0,0,1,2.829-14.014,35.9,35.9,0,0,1,7.717-11.442,35.9,35.9,0,0,1,11.442-7.716A35.749,35.749,0,0,1-6350,7440a35.763,35.763,0,0,1,14.014,2.827,35.9,35.9,0,0,1,11.442,7.716,35.863,35.863,0,0,1,7.715,11.442A35.783,35.783,0,0,1-6314,7476h-4a31.789,31.789,0,0,0-9.383-22.617A31.789,31.789,0,0,0-6350,7444a32.038,32.038,0,0,0-32,32h0v24Z" transform="translate(6773 -6344.999)"/>
      <path id="联合_478" data-name="联合 478" class="cls-4" d="M-6386,7443h16a4,4,0,0,1,4,4,4,4,0,0,1-4,4h-16a4,4,0,0,1-4-4A4,4,0,0,1-6386,7443Z" transform="translate(6827 -6296)"/>
    </g>
  </g>
</svg>
