<svg xmlns="http://www.w3.org/2000/svg" xmlns:xlink="http://www.w3.org/1999/xlink" width="80" height="80" viewBox="0 0 80 80">
  <defs>
    <style>
      .cls-1 {
        fill: #fff;
      }

      .cls-2 {
        clip-path: url(#clip-path);
      }

      .cls-3 {
        fill: rgba(0,207,255,0.3);
      }

      .cls-4, .cls-6 {
        fill: #00cfff;
      }

      .cls-5, .cls-6 {
        stroke: none;
      }
    </style>
    <clipPath id="clip-path">
      <rect id="矩形_4131" data-name="矩形 4131" class="cls-1" width="80" height="80" transform="translate(917 1173)"/>
    </clipPath>
  </defs>
  <g id="GIS1" class="cls-2" transform="translate(-917 -1173)">
    <g id="GIS1-2" data-name="GIS1" transform="translate(-3 338)">
      <g id="路径_670" data-name="路径 670" class="cls-3" transform="translate(934 835)">
        <path class="cls-5" d="M 25.99699783325195 63.65262985229492 C 23.96958541870117 62.36048889160156 19.1397876739502 59.04405212402344 14.37240028381348 54.0040397644043 C 10.7564697265625 50.18133926391602 7.88129997253418 46.12643814086914 5.826769828796387 41.95199966430664 C 3.287509918212891 36.79269027709961 2 31.4256591796875 2 26 C 2 22.75914001464844 2.63427996635437 19.61627960205078 3.885220050811768 16.65872955322266 C 5.093910217285156 13.80107021331787 6.82466983795166 11.23419952392578 9.029439926147461 9.029439926147461 C 11.23419952392578 6.82466983795166 13.80107021331787 5.093910217285156 16.65872955322266 3.885220050811768 C 19.61627960205078 2.63427996635437 22.75914001464844 2 26 2 C 29.24085998535156 2 32.38372039794922 2.63427996635437 35.34127044677734 3.885220050811768 C 38.19892883300781 5.093910217285156 40.76580047607422 6.82466983795166 42.97055816650391 9.029439926147461 C 45.17533111572266 11.23419952392578 46.90608978271484 13.80107021331787 48.11478042602539 16.65872955322266 C 49.36571884155273 19.61627960205078 50 22.75914001464844 50 26 C 50 31.41522026062012 48.70296096801758 36.78253173828125 46.14490127563477 41.95283126831055 C 44.07696151733398 46.13253021240234 41.18452835083008 50.19847869873047 37.54798126220703 54.03773880004883 C 32.78718185424805 59.06389236450195 28.00957489013672 62.36259841918945 25.99699783325195 63.65262985229492 Z"/>
        <path class="cls-6" d="M 26 4 C 23.02826309204102 4 20.14752578735352 4.581123352050781 17.43783569335938 5.727226257324219 C 14.81857681274414 6.835086822509766 12.46538925170898 8.421913146972656 10.44364929199219 10.44364929199219 C 8.421913146972656 12.46538925170898 6.835086822509766 14.81857681274414 5.727226257324219 17.43783569335938 C 4.581123352050781 20.14752578735352 4 23.02826309204102 4 26 C 4 31.09693908691406 5.208976745605469 36.14775085449219 7.593349456787109 41.01212310791016 C 9.546398162841797 44.99653625488281 12.29019927978516 48.87786102294922 15.74853897094727 52.54828643798828 C 19.68925857543945 56.73068237304688 23.68536949157715 59.69704055786133 25.99330520629883 61.25728607177734 C 31.74165534973145 57.34661102294922 48 44.63533020019531 48 26 C 48 23.02826309204102 47.41887664794922 20.14752578735352 46.27277374267578 17.43783569335938 C 45.16491317749023 14.81857681274414 43.57808685302734 12.46538925170898 41.55635070800781 10.44364929199219 C 39.53461456298828 8.421913146972656 37.18142700195313 6.835086822509766 34.56216430664063 5.727226257324219 C 31.85247421264648 4.581123352050781 28.97173690795898 4 26 4 M 26 0 C 40.35939788818359 0 52 11.64059829711914 52 26 C 52 51.10160064697266 26 66 26 66 C 26 66 0 51.23578643798828 0 26 C 0 11.64059829711914 11.64059829711914 0 26 0 Z"/>
      </g>
      <path id="减去_272" data-name="减去 272" class="cls-4" d="M-6360,7525c-8.544,0-16.581-1.457-22.628-4.1a21.442,21.442,0,0,1-6.857-4.449A7.844,7.844,0,0,1-6392,7511a7.846,7.846,0,0,1,2.515-5.451,21.377,21.377,0,0,1,6.857-4.449,39.522,39.522,0,0,1,3.85-1.44c1.168,1.455,2.438,2.9,3.778,4.3.206.215.413.429.614.635a23.806,23.806,0,0,0-7,2.769c-1.738,1.132-2.62,2.354-2.62,3.633,0,4.411,10.767,8,24,8s24-3.588,24-8c0-1.278-.881-2.5-2.62-3.633a23.806,23.806,0,0,0-7-2.769c.184-.188.385-.4.614-.635,1.338-1.4,2.609-2.85,3.776-4.3a39.655,39.655,0,0,1,3.852,1.441,21.38,21.38,0,0,1,6.857,4.449A7.846,7.846,0,0,1-6328,7511a7.844,7.844,0,0,1-2.516,5.45,21.445,21.445,0,0,1-6.857,4.449C-6343.421,7523.546-6351.457,7525-6360,7525Zm0-22h0v-6l0,6Z" transform="translate(7320 -6610.001)"/>
      <circle id="椭圆_893" data-name="椭圆 893" class="cls-4" cx="10" cy="10" r="10" transform="translate(950 851)"/>
    </g>
  </g>
</svg>
