<svg xmlns="http://www.w3.org/2000/svg" xmlns:xlink="http://www.w3.org/1999/xlink" width="80" height="80" viewBox="0 0 80 80">
  <defs>
    <style>
      .cls-1 {
        fill: #fff;
      }

      .cls-2 {
        clip-path: url(#clip-path);
      }

      .cls-3, .cls-5 {
        fill: rgba(0,207,255,0.2);
      }

      .cls-4, .cls-7 {
        fill: #00cfff;
      }

      .cls-6, .cls-7 {
        stroke: none;
      }
    </style>
    <clipPath id="clip-path">
      <rect id="矩形_4123" data-name="矩形 4123" class="cls-1" width="80" height="80" transform="translate(661 994)"/>
    </clipPath>
  </defs>
  <g id="录音1" class="cls-2" transform="translate(-661 -994)">
    <g id="录音1-2" data-name="录音1" transform="translate(2 133.001)">
      <g id="组_116" data-name="组 116" transform="translate(-4 370)">
        <path id="减去_170" data-name="减去 170" class="cls-3" d="M-6322,7508h-66a4,4,0,0,1-4-4v-52a4,4,0,0,1,4-4h6.977l4.87,9.8a4.49,4.49,0,0,0,1.453,1.607,5.31,5.31,0,0,0,2.212.6h34.976a5.311,5.311,0,0,0,2.212-.6,4.479,4.479,0,0,0,1.453-1.6l4.872-9.8H-6322a4,4,0,0,1,4,4v52A4,4,0,0,1-6322,7508Z" transform="translate(7058 -6947)"/>
        <circle id="椭圆_834" data-name="椭圆 834" class="cls-4" cx="8" cy="8" r="8" transform="translate(679 527)"/>
        <circle id="椭圆_835" data-name="椭圆 835" class="cls-4" cx="8" cy="8" r="8" transform="translate(711 527)"/>
        <rect id="矩形_3646" data-name="矩形 3646" class="cls-4" width="40" height="8" rx="4" transform="translate(683 501)"/>
      </g>
      <g id="减去_238" data-name="减去 238" class="cls-5" transform="translate(7054.001 -6577)">
        <path class="cls-6" d="M -6322.00048828125 7506.00146484375 L -6388.00048828125 7506.00146484375 C -6389.103515625 7506.00146484375 -6390.0009765625 7505.10400390625 -6390.0009765625 7504.0009765625 L -6390.0009765625 7451.9990234375 C -6390.0009765625 7450.89599609375 -6389.103515625 7449.9990234375 -6388.00048828125 7449.9990234375 L -6382.26416015625 7449.9990234375 L -6386.00146484375 7449.9990234375 C -6388.20654296875 7449.9990234375 -6390.00048828125 7451.7939453125 -6390.00048828125 7454 L -6390.00048828125 7502 C -6390.00048828125 7504.2060546875 -6388.20654296875 7506.0009765625 -6386.00146484375 7506.0009765625 L -6324 7506.0009765625 C -6321.8369140625 7506.0009765625 -6320.0693359375 7504.27392578125 -6320.00244140625 7502.1259765625 L -6320.00244140625 7504.0009765625 C -6320.00244140625 7505.10400390625 -6320.89892578125 7506.00146484375 -6322.00048828125 7506.00146484375 Z M -6320.00244140625 7453.8740234375 C -6320.0693359375 7451.72607421875 -6321.8369140625 7449.9990234375 -6324 7449.9990234375 L -6322.00048828125 7449.9990234375 C -6320.89892578125 7449.9990234375 -6320.00244140625 7450.89599609375 -6320.00244140625 7451.9990234375 L -6320.00244140625 7453.8740234375 Z"/>
        <path class="cls-7" d="M -6322.00048828125 7508.00146484375 L -6388.00048828125 7508.00146484375 C -6390.20654296875 7508.00146484375 -6392.0009765625 7506.20703125 -6392.0009765625 7504.0009765625 L -6392.0009765625 7451.9990234375 C -6392.0009765625 7449.79345703125 -6390.20654296875 7447.9990234375 -6388.00048828125 7447.9990234375 L -6381.02490234375 7447.9990234375 L -6379.0361328125 7451.9990234375 L -6386.00146484375 7451.9990234375 C -6387.103515625 7451.9990234375 -6388.00048828125 7452.896484375 -6388.00048828125 7454 L -6388.00048828125 7502 C -6388.00048828125 7503.103515625 -6387.103515625 7504.0009765625 -6386.00146484375 7504.0009765625 L -6324 7504.0009765625 C -6322.8974609375 7504.0009765625 -6322.00048828125 7503.103515625 -6322.00048828125 7502 L -6322.00048828125 7454 C -6322.00048828125 7452.896484375 -6322.8974609375 7451.9990234375 -6324 7451.9990234375 L -6330.96630859375 7451.9990234375 L -6328.9775390625 7447.9990234375 L -6322.00048828125 7447.9990234375 C -6319.7958984375 7447.9990234375 -6318.00244140625 7449.79345703125 -6318.00244140625 7451.9990234375 L -6318.00244140625 7504.0009765625 C -6318.00244140625 7506.20703125 -6319.7958984375 7508.00146484375 -6322.00048828125 7508.00146484375 Z"/>
      </g>
    </g>
  </g>
</svg>
