<svg xmlns="http://www.w3.org/2000/svg" xmlns:xlink="http://www.w3.org/1999/xlink" width="80" height="80" viewBox="0 0 80 80">
  <defs>
    <style>
      .cls-1 {
        fill: #fff;
      }

      .cls-2 {
        clip-path: url(#clip-path);
      }

      .cls-3, .cls-4 {
        fill: #00cfff;
      }

      .cls-3 {
        opacity: 0.3;
      }
    </style>
    <clipPath id="clip-path">
      <rect id="矩形_4136" data-name="矩形 4136" class="cls-1" width="80" height="80" transform="translate(1439 1376)"/>
    </clipPath>
  </defs>
  <g id="系统配置1" class="cls-2" transform="translate(-1439 -1376)">
    <g id="系统配置1-2" data-name="系统配置1" transform="translate(-6.04 -8.98)">
      <path id="减去_308" data-name="减去 308" class="cls-3" d="M-6341.43,7536.568h-.007a3.959,3.959,0,0,1-2.822-1.173,3.952,3.952,0,0,1-1.171-2.828c0-2.235-.005-2.448-.009-2.453a4,4,0,0,0-1.166-2.574,3.97,3.97,0,0,0-2.829-1.169,3.988,3.988,0,0,0-2.643,1c-.01,0-.447.433-1.738,1.725a3.976,3.976,0,0,1-2.83,1.17,3.971,3.971,0,0,1-2.827-1.168l-8.487-8.487a3.969,3.969,0,0,1-1.168-2.827,3.973,3.973,0,0,1,1.17-2.829c1.6-1.6,1.728-1.732,1.727-1.738a4,4,0,0,0-.174-5.474,4,4,0,0,0-2.572-1.164c-.006,0-.208-.006-2.453-.009a3.974,3.974,0,0,1-2.831-1.174,3.965,3.965,0,0,1-1.172-2.827v-12a3.963,3.963,0,0,1,1.173-2.826,3.984,3.984,0,0,1,2.83-1.175c2.337,0,2.449,0,2.454-.006a3.988,3.988,0,0,0,2.572-1.165,4.005,4.005,0,0,0,.172-5.476c-.009-.017-1.375-1.385-1.727-1.736a4.005,4.005,0,0,1,0-5.657l8.485-8.485a3.976,3.976,0,0,1,2.83-1.17,3.971,3.971,0,0,1,2.827,1.168l0,0c1.661,1.659,1.726,1.724,1.729,1.724a3.993,3.993,0,0,0,2.646,1,3.974,3.974,0,0,0,2.83-1.169,4,4,0,0,0,1.166-2.574s.007-.144.007-2.455a3.972,3.972,0,0,1,1.173-2.828,3.976,3.976,0,0,1,2.828-1.175h12a4.006,4.006,0,0,1,4,4c0,2.443.006,2.452.007,2.455a4,4,0,0,0,1.164,2.574,3.971,3.971,0,0,0,2.831,1.17,3.991,3.991,0,0,0,2.643-1c.008-.006.557-.547,1.74-1.73a3.972,3.972,0,0,1,2.828-1.169,3.972,3.972,0,0,1,2.828,1.169l8.485,8.485a4.007,4.007,0,0,1,0,5.657c-1.614,1.618-1.729,1.738-1.727,1.742a4,4,0,0,0,.172,5.472,4,4,0,0,0,2.574,1.164c.013,0,.908.007,2.455.007a3.962,3.962,0,0,1,2.828,1.171,3.967,3.967,0,0,1,1.173,2.83v12a3.965,3.965,0,0,1-1.173,2.828,3.959,3.959,0,0,1-2.822,1.173h-.007c-2.266,0-2.453.007-2.455.011a3.978,3.978,0,0,0-2.574,1.162,3.989,3.989,0,0,0-1.033,1.793l-10.144-10.145a19.854,19.854,0,0,0-5.651-16.963,19.862,19.862,0,0,0-14.141-5.847,19.862,19.862,0,0,0-14.141,5.847,19.86,19.86,0,0,0-5.849,14.141,19.86,19.86,0,0,0,5.849,14.141,19.864,19.864,0,0,0,14.143,5.849,20.281,20.281,0,0,0,2.82-.2l10.145,10.146a3.99,3.99,0,0,0-1.795,1.035,3.991,3.991,0,0,0-1.164,2.574c0,.01-.011.755-.009,2.453a3.952,3.952,0,0,1-1.171,2.828,3.955,3.955,0,0,1-2.82,1.171h-.007Z" transform="translate(7820.473 -6071.586)"/>
      <path id="减去_307" data-name="减去 307" class="cls-4" d="M-6358,7520H-6358a3.961,3.961,0,0,1-2.821-1.174A3.956,3.956,0,0,1-6362,7516c0-2.446-.006-2.45-.008-2.453a4.008,4.008,0,0,0-1.166-2.574,3.966,3.966,0,0,0-2.829-1.17,3.979,3.979,0,0,0-2.642,1c-.009,0-.338.322-1.738,1.725a3.977,3.977,0,0,1-2.831,1.17,3.97,3.97,0,0,1-2.827-1.168l-8.487-8.487a3.962,3.962,0,0,1-1.168-2.827,3.963,3.963,0,0,1,1.17-2.827c1.666-1.669,1.729-1.734,1.727-1.74a4,4,0,0,0-.173-5.473,4,4,0,0,0-2.573-1.163c-.006,0-.123-.005-2.453-.009a3.98,3.98,0,0,1-2.831-1.174A3.963,3.963,0,0,1-6392,7486v-12a3.966,3.966,0,0,1,1.174-2.825A3.984,3.984,0,0,1-6388,7470c.892,0,2.44,0,2.453,0a4,4,0,0,0,2.573-1.167,4,4,0,0,0,.171-5.475c-.031-.034-.121-.127-.372-.379-.2-.207-.648-.65-1.355-1.357a3.966,3.966,0,0,1-1.168-2.829,3.973,3.973,0,0,1,1.17-2.829l8.485-8.485a3.977,3.977,0,0,1,2.831-1.17,3.97,3.97,0,0,1,2.827,1.168l.009.01.567.567c1.111,1.109,1.155,1.152,1.158,1.152a3.992,3.992,0,0,0,2.646,1,3.98,3.98,0,0,0,2.829-1.17,4.011,4.011,0,0,0,1.166-2.574v-.035c0-.509.005-1.6.005-2.42a3.975,3.975,0,0,1,1.174-2.827A3.978,3.978,0,0,1-6358,7440h12a4.007,4.007,0,0,1,4,4c0,2.443.006,2.452.008,2.456a4,4,0,0,0,1.163,2.574,3.976,3.976,0,0,0,2.831,1.17,3.986,3.986,0,0,0,2.642-1c.005,0,.544-.533,1.742-1.731a3.961,3.961,0,0,1,2.825-1.168,3.973,3.973,0,0,1,2.829,1.168l8.485,8.485a4.008,4.008,0,0,1,0,5.658c-1.6,1.6-1.727,1.735-1.727,1.742a4,4,0,0,0,.172,5.471,4.012,4.012,0,0,0,2.574,1.165h.021c.361,0,1.226.005,2.434.005a3.969,3.969,0,0,1,2.827,1.172A3.972,3.972,0,0,1-6312,7474v12a3.963,3.963,0,0,1-1.174,2.827,3.957,3.957,0,0,1-2.822,1.174H-6316c-2.26,0-2.451.008-2.456.011a3.978,3.978,0,0,0-2.574,1.161,4,4,0,0,0-1.033,1.792l-3.076-3.076.006-.012.006-.012c1.772-3.543,6.384-3.926,8.285-3.926.442,0,.744.021.854.03l0-11.983c-.04,0-.2.009-.783.009-.47,0-1.138,0-2.042-.011a7.451,7.451,0,0,1-4.562-1.857,7.964,7.964,0,0,1-2.751-5.009,8.057,8.057,0,0,1,.934-4.973,7.6,7.6,0,0,1,1.352-1.8l1.538-1.539-8.444-8.458-1.987,1.987a8.445,8.445,0,0,1-5.333,1.942,7.565,7.565,0,0,1-3.6-.919,8.1,8.1,0,0,1-3.78-4.38,8.666,8.666,0,0,1-.562-2.657v-2.3h-11.969a.066.066,0,0,0,0,.012c.01.26.031,1.06,0,2.865a7.82,7.82,0,0,1-1.709,4.178,7.76,7.76,0,0,1-4.888,3.031,8.774,8.774,0,0,1-1.361.11,8.35,8.35,0,0,1-5.577-2.178l-1.68-1.68-8.479,8.479,1.876,1.876a8.577,8.577,0,0,1,1.8,3.918,7.262,7.262,0,0,1-1.085,5.854,7.9,7.9,0,0,1-6.14,3.544c-.042,0-.064,0-.064,0h-2.727v12.009h2.727a7.263,7.263,0,0,1,4.643,1.778,8.114,8.114,0,0,1,2.725,4.6,8.305,8.305,0,0,1-.589,4.841,9.467,9.467,0,0,1-1.153,2.011l-1.914,1.914,8.5,8.5,2.063-2.063a6.906,6.906,0,0,1,4.788-1.765,9.181,9.181,0,0,1,3.973.953,7.372,7.372,0,0,1,3.674,4.116,9.148,9.148,0,0,1,.585,2.637V7516h11.98v-2.712a9.245,9.245,0,0,1,.844-2.882,7.9,7.9,0,0,1,3.133-3.468l3,3a3.989,3.989,0,0,0-1.793,1.038,3.991,3.991,0,0,0-1.163,2.574c0,.011-.011.713-.009,2.453a3.965,3.965,0,0,1-1.172,2.827,3.957,3.957,0,0,1-2.819,1.172H-6346Z" transform="translate(7837.04 -6055.021)"/>
      <path id="减去_305" data-name="减去 305" class="cls-4" d="M-6348.378,7491.692a7.952,7.952,0,0,1-5.658-2.343l-12.76-12.76a16.119,16.119,0,0,1-4.092.525,15.9,15.9,0,0,1-11.314-4.686,16,16,0,0,1-4.175-7.3,16.056,16.056,0,0,1,.034-8.157l6.263,6.263a7.948,7.948,0,0,0,5.656,2.338,7.951,7.951,0,0,0,5.659-2.34,7.943,7.943,0,0,0,2.34-5.656,7.945,7.945,0,0,0-2.34-5.656l-6.266-6.266a16.052,16.052,0,0,1,4.143-.542,16.108,16.108,0,0,1,4.018.508,16,16,0,0,1,7.3,4.174,15.9,15.9,0,0,1,4.686,11.316,16.162,16.162,0,0,1-.553,4.2l12.719,12.719a8.011,8.011,0,0,1,0,11.314A7.951,7.951,0,0,1-6348.378,7491.692Zm0-12a3.976,3.976,0,0,0-2.829,1.17,3.975,3.975,0,0,0-1.17,2.829,3.974,3.974,0,0,0,1.17,2.829,3.975,3.975,0,0,0,2.828,1.171,3.973,3.973,0,0,0,2.828-1.171,3.974,3.974,0,0,0,1.17-2.829,3.975,3.975,0,0,0-1.17-2.829A3.971,3.971,0,0,0-6348.379,7479.692Z" transform="translate(7855.929 -6036.131)"/>
    </g>
  </g>
</svg>
