<svg xmlns="http://www.w3.org/2000/svg" xmlns:xlink="http://www.w3.org/1999/xlink" width="80" height="80" viewBox="0 0 80 80">
  <defs>
    <style>
      .cls-1 {
        fill: #fff;
      }

      .cls-2 {
        clip-path: url(#clip-path);
      }

      .cls-3 {
        fill: rgba(0,207,255,0.3);
      }

      .cls-4 {
        fill: #00cfff;
      }

      .cls-5 {
        fill: #00d0ff;
      }
    </style>
    <clipPath id="clip-path">
      <rect id="矩形_4138" data-name="矩形 4138" class="cls-1" width="80" height="80" transform="translate(917 1376)"/>
    </clipPath>
  </defs>
  <g id="视频调度1" class="cls-2" transform="translate(-917 -1376)">
    <g id="视频调度1-2" data-name="视频调度1" transform="translate(-10.999 -6.998)">
      <rect id="矩形_3950" data-name="矩形 3950" class="cls-3" width="60" height="50" rx="4" transform="translate(928 1398)"/>
      <path id="联合_284" data-name="联合 284" class="cls-4" d="M-6388,7490a4.006,4.006,0,0,1-4-4v-42a4.007,4.007,0,0,1,4-4h52a4,4,0,0,1,4,4v42a4,4,0,0,1-4,4Zm0-44v38a2,2,0,0,0,2,2h48a2,2,0,0,0,2-2v-38a2,2,0,0,0-2-2h-48A2,2,0,0,0-6388,7446Zm70.024,36.61-10.025-5.69v-23.837l10.025-5.69a3.955,3.955,0,0,1,1.97-.528,4.067,4.067,0,0,1,2.786,1.128,3.95,3.95,0,0,1,1.218,2.878v28.262a3.944,3.944,0,0,1-1.218,2.876,4.06,4.06,0,0,1-2.786,1.127A3.943,3.943,0,0,1-6317.975,7482.608Z" transform="translate(7320 -6042)"/>
      <path id="多边形_2" data-name="多边形 2" class="cls-5" d="M11.5,6.294a4,4,0,0,1,6.993,0l8.2,14.763A4,4,0,0,1,23.2,27H6.8a4,4,0,0,1-3.5-5.943Z" transform="translate(976 1407) rotate(90)"/>
    </g>
  </g>
</svg>
