<svg xmlns="http://www.w3.org/2000/svg" xmlns:xlink="http://www.w3.org/1999/xlink" width="80" height="80" viewBox="0 0 80 80">
  <defs>
    <style>
      .cls-1 {
        fill: #fff;
      }

      .cls-2 {
        clip-path: url(#clip-path);
      }

      .cls-3, .cls-8 {
        fill: none;
      }

      .cls-3 {
        stroke: #00cfff;
        stroke-width: 4px;
      }

      .cls-4 {
        fill: #00d0ff;
      }

      .cls-5 {
        fill: rgba(0,207,255,0.3);
      }

      .cls-6 {
        fill: #00cfff;
      }

      .cls-7 {
        stroke: none;
      }
    </style>
    <clipPath id="clip-path">
      <rect id="矩形_4121" data-name="矩形 4121" class="cls-1" width="80" height="80" transform="translate(138 994)"/>
    </clipPath>
  </defs>
  <g id="视频监控1" class="cls-2" transform="translate(-138 -994)">
    <g id="视频监控1-2" data-name="视频监控1" transform="translate(0.001 499)">
      <g id="椭圆_880" data-name="椭圆 880" class="cls-3" transform="translate(149 500)">
        <circle class="cls-7" cx="29" cy="29" r="29"/>
        <circle class="cls-8" cx="29" cy="29" r="27"/>
      </g>
      <path id="减去_257" data-name="减去 257" class="cls-4" d="M-6327.994,7520h-46.014a3.957,3.957,0,0,1-3.471-2.013,3.96,3.96,0,0,1,.024-4.015l5.55-9.436A33.063,33.063,0,0,0-6351,7512a33.057,33.057,0,0,0,20.9-7.464l5.551,9.436a3.958,3.958,0,0,1,.024,4.014A3.958,3.958,0,0,1-6327.994,7520Z" transform="translate(6529 -6950)"/>
      <path id="减去_258" data-name="减去 258" class="cls-5" d="M-6360,7501a28.825,28.825,0,0,1-11.288-2.279,28.889,28.889,0,0,1-9.218-6.216,28.909,28.909,0,0,1-6.215-9.218A28.811,28.811,0,0,1-6389,7472a28.818,28.818,0,0,1,2.279-11.289,28.9,28.9,0,0,1,6.215-9.217,28.9,28.9,0,0,1,9.218-6.215A28.818,28.818,0,0,1-6360,7443a28.818,28.818,0,0,1,11.289,2.279,28.888,28.888,0,0,1,9.217,6.215,28.888,28.888,0,0,1,6.215,9.217A28.818,28.818,0,0,1-6331,7472a28.811,28.811,0,0,1-2.279,11.287,28.9,28.9,0,0,1-6.215,9.218,28.893,28.893,0,0,1-9.217,6.216A28.829,28.829,0,0,1-6360,7501Zm0-40a17.019,17.019,0,0,0-17,17,17.019,17.019,0,0,0,17,17,17.019,17.019,0,0,0,17-17A17.02,17.02,0,0,0-6360,7461Z" transform="translate(6538 -6943)"/>
      <path id="减去_256" data-name="减去 256" class="cls-6" d="M-6374,7456a8,8,0,0,1,8,8,8,8,0,0,1-8,8,8,8,0,0,1-8-8A8,8,0,0,1-6374,7456Z" transform="translate(6552 -6929)"/>
    </g>
  </g>
</svg>
