<svg xmlns="http://www.w3.org/2000/svg" xmlns:xlink="http://www.w3.org/1999/xlink" width="80" height="80" viewBox="0 0 80 80">
  <defs>
    <style>
      .cls-1 {
        fill: #fff;
      }

      .cls-2 {
        clip-path: url(#clip-path);
      }

      .cls-3 {
        fill: #a9f8ff;
      }

      .cls-4 {
        fill: rgba(169,248,255,0.3);
      }
    </style>
    <clipPath id="clip-path">
      <rect id="矩形_4234" data-name="矩形 4234" class="cls-1" width="80" height="80" transform="translate(1181 994)"/>
    </clipPath>
  </defs>
  <g id="txl_sel" class="cls-2" transform="translate(-1181 -994)">
    <g id="通讯录1" transform="translate(6 136)">
      <path id="减去_466" data-name="减去 466" class="cls-3" d="M-6327,7512h-54a4,4,0,0,1-4-4v-3h4v1a2,2,0,0,0,2,2h50a2,2,0,0,0,2-2v-58a2,2,0,0,0-2-2h-50a2,2,0,0,0-2,2v1h-4v-3a4,4,0,0,1,4-4h54a4,4,0,0,1,4,4v62A4,4,0,0,1-6327,7512Zm-54-23h-4v-4h4v4Zm0-20h-4v-4h4v4Z" transform="translate(7573 -6579)"/>
      <rect id="矩形_4229" data-name="矩形 4229" class="cls-3" width="14" height="8" rx="4" transform="translate(1180 874)"/>
      <rect id="矩形_4230" data-name="矩形 4230" class="cls-3" width="14" height="8" rx="4" transform="translate(1180 894)"/>
      <rect id="矩形_4231" data-name="矩形 4231" class="cls-3" width="14" height="8" rx="4" transform="translate(1180 914)"/>
      <rect id="矩形_4232" data-name="矩形 4232" class="cls-4" width="46" height="54" rx="2" transform="translate(1196 871)"/>
      <path id="联合_563" data-name="联合 563" class="cls-3" d="M-6389,7468a3,3,0,0,1-3-3,9,9,0,0,1,9-9h6a9,9,0,0,1,9,9,3,3,0,0,1-3,3Zm2-21a7,7,0,0,1,7-7,7,7,0,0,1,7,7,7,7,0,0,1-7,7A7,7,0,0,1-6387,7447Z" transform="translate(7600 -6555.999)"/>
    </g>
  </g>
</svg>
