<svg xmlns="http://www.w3.org/2000/svg" xmlns:xlink="http://www.w3.org/1999/xlink" width="80" height="80" viewBox="0 0 80 80">
  <defs>
    <style>
      .cls-1 {
        fill: #fff;
      }

      .cls-2 {
        clip-path: url(#clip-path);
      }

      .cls-3, .cls-4 {
        fill: rgba(169,248,255,0.3);
      }

      .cls-3 {
        stroke: #a9f8ff;
        stroke-width: 4px;
      }

      .cls-5 {
        fill: #a9f8ff;
      }

      .cls-6 {
        stroke: none;
      }

      .cls-7 {
        fill: none;
      }
    </style>
    <clipPath id="clip-path">
      <rect id="矩形_4216" data-name="矩形 4216" class="cls-1" width="80" height="80" transform="translate(400 1376)"/>
    </clipPath>
  </defs>
  <g id="hjzx1_sel" class="cls-2" transform="translate(-400 -1376)">
    <g id="呼叫中心11" transform="translate(-266.001 372)">
      <g id="组_209" data-name="组 209" transform="translate(261 -90)">
        <g id="椭圆_1105" data-name="椭圆 1105" class="cls-3" transform="translate(422 1098)">
          <ellipse class="cls-6" cx="18" cy="18" rx="18" ry="18"/>
          <ellipse class="cls-7" cx="18" cy="18" rx="16" ry="16"/>
        </g>
        <circle id="椭圆_1106" data-name="椭圆 1106" class="cls-4" cx="16" cy="16" r="16" transform="translate(449 1138)"/>
        <path id="路径_775" data-name="路径 775" class="cls-5" d="M49.082,51.9c-1.5-1.5-2.94-3.214-2.256-3.9.957-.957,1.846-1.573.068-3.692-1.709-2.188-2.8-.547-3.761.41-1.094,1.094-.068,5.128,3.966,9.162s8.068,5.06,9.162,3.966c.957-.957,2.6-2.12.479-3.829-2.188-1.709-2.8-.889-3.692.068-.752.684-2.461-.752-3.966-2.188Z" transform="translate(414.92 1103.875)"/>
        <path id="减去_459" data-name="减去 459" class="cls-4" d="M-6348,7478h-36a8.008,8.008,0,0,1-8-8,23.838,23.838,0,0,1,7.029-16.97A23.841,23.841,0,0,1-6368,7446h20a19.847,19.847,0,0,0-8,16,19.852,19.852,0,0,0,7.994,16Z" transform="translate(6801 -6308)"/>
        <path id="减去_461" data-name="减去 461" class="cls-5" d="M-6348,7478h-36a8.008,8.008,0,0,1-8-8,23.843,23.843,0,0,1,7.028-16.971A23.843,23.843,0,0,1-6368,7446h20a20.087,20.087,0,0,0-4,4h-15.427A20.594,20.594,0,0,0-6388,7470.57a3.432,3.432,0,0,0,3.427,3.429H-6352a20.08,20.08,0,0,0,4,4Z" transform="translate(6801.001 -6308)"/>
      </g>
    </g>
  </g>
</svg>
