<svg xmlns="http://www.w3.org/2000/svg" xmlns:xlink="http://www.w3.org/1999/xlink" width="80" height="80" viewBox="0 0 80 80">
  <defs>
    <style>
      .cls-1 {
        fill: #fff;
      }

      .cls-2 {
        clip-path: url(#clip-path);
      }

      .cls-3 {
        fill: rgba(169,248,255,0.3);
      }

      .cls-4, .cls-7 {
        fill: #a9f8ff;
      }

      .cls-5 {
        fill: #00578a;
      }

      .cls-6, .cls-7 {
        stroke: none;
      }
    </style>
    <clipPath id="clip-path">
      <rect id="矩形_4266" data-name="矩形 4266" class="cls-1" width="80" height="80" transform="translate(661 1174)"/>
    </clipPath>
  </defs>
  <g id="jypx_sel" class="cls-2" transform="translate(-661 -1174)">
    <g id="教育培训1" transform="translate(-3.403 49.03)">
      <path id="减去_485" data-name="减去 485" class="cls-3" d="M24.7,30.613A43.07,43.07,0,0,1,7.593,27.408C2.984,25.347.3,22.579.023,19.614H0V.262l22.58,9.974a4.944,4.944,0,0,0,1.365.385,3.27,3.27,0,0,0,.454.031h.01a3.87,3.87,0,0,0,.454-.027,5.074,5.074,0,0,0,1.358-.384l.01,0L49.4,0V19.614H49.38c-.273,2.965-2.962,5.733-7.57,7.794A43.068,43.068,0,0,1,24.7,30.613Z" transform="translate(680 1164.386)"/>
      <path id="减去_487" data-name="减去 487" class="cls-4" d="M40,40.355H40a4.2,4.2,0,0,1-.46-.028,4.886,4.886,0,0,1-1.367-.387L2.817,24.4A5.034,5.034,0,0,1,.84,22.81,4.268,4.268,0,0,1,0,20.183V20.17A4.286,4.286,0,0,1,.84,17.542a4.976,4.976,0,0,1,1.977-1.584L38.166.417A4.912,4.912,0,0,1,39.536.03,2.993,2.993,0,0,1,39.992,0H40a3.1,3.1,0,0,1,.457.028,5.136,5.136,0,0,1,1.358.381l.007,0,.008,0L77.181,15.958a4.994,4.994,0,0,1,1.986,1.6A4.291,4.291,0,0,1,80,20.17v.013a4.292,4.292,0,0,1-.833,2.615,5.01,5.01,0,0,1-1.986,1.6l-7.754,3.409-4.911-2.421L75.994,20.2,40,4,3.991,20.2,40,36.448l18.611-8.4L63.4,30.456,41.833,39.938a5,5,0,0,1-1.374.385A3.386,3.386,0,0,1,40,40.355Z" transform="translate(664.403 1130.97)"/>
      <path id="联合_575" data-name="联合 575" class="cls-4" d="M34.936,39.583,30.694,35.34a2,2,0,0,1,0-2.829l3.084-3.084V19.48L0,2.9A5.268,5.268,0,0,1,6.881.488l28.68,14.349q.282.162.531.31a4.008,4.008,0,0,1,2.673,3.46c.009.1.014.211.014.32V29.284l3.227,3.227a2,2,0,0,1,0,2.829l-4.243,4.243a2,2,0,0,1-2.829,0Z" transform="translate(701.624 1140.074)"/>
      <path id="减去_488" data-name="减去 488" class="cls-3" d="M38.305,34.531,0,17.245,38.305,0,76.594,17.245l-12.636,5.7L38.044,10.169c-1.232-.606-2.168-1.124-2.174-1.127a4.414,4.414,0,0,0-.837,3.211,4.8,4.8,0,0,0,2.594,3.14L58,25.638l-19.7,8.893Z" transform="translate(666.099 1133.928)"/>
      <g id="路径_796" data-name="路径 796" class="cls-5" transform="translate(676.261 1168.017)">
        <path class="cls-6" d="M 28.90618324279785 26.98063850402832 C 34.41447448730469 26.92228317260742 39.64448165893555 25.83103370666504 43.67843627929688 23.89290428161621 C 47.38611221313477 22.11150932312012 49.83924102783203 19.72931861877441 50.77026748657227 17.05610466003418 L 51.14272308349609 17.05610466003418 L 51.14273452758789 17.48256492614746 L 51.14273452758789 17.63964462280273 L 51.12801742553711 17.79941368103027 C 50.92697525024414 19.98142433166504 48.59601593017578 22.22372436523438 44.73281478881836 23.95137405395508 C 40.47248458862305 25.85665130615234 34.86770248413086 26.92760848999023 28.90618324279785 26.98063850402832 Z M 27.96527481079102 26.98054122924805 C 22.00710868835449 26.92639350891113 16.40668869018555 25.85557746887207 12.14875602722168 23.95138359069824 C 8.285676002502441 22.22378349304199 5.9549560546875 19.98156356811523 5.754216194152832 17.79967498779297 L 5.739462852478027 17.63931846618652 L 5.739457130432129 17.05610466003418 L 6.111116409301758 17.05610466003418 C 7.042083740234375 19.72930526733398 9.495139122009277 22.11145782470703 13.2027759552002 23.89288520812988 C 17.23460006713867 25.8300609588623 22.46039390563965 26.92117881774902 27.96527481079102 26.98054122924805 Z"/>
        <path class="cls-7" d="M 28.44111633300781 28.98270416259766 C 22.03063583374023 28.98270416259766 15.95458602905273 27.84427452087402 11.33226585388184 25.77712440490723 C 6.723716259002686 23.71614456176758 4.035436153411865 20.94810485839844 3.762626171112061 17.9829044342041 L 3.739466190338135 17.9829044342041 L 3.739256143569946 -3.360835552215576 L 7.691486358642578 -1.657715559005737 L 7.691336154937744 15.05610466003418 L 7.710946083068848 15.05610466003418 C 7.939756393432617 17.73224449157715 10.19740581512451 20.22999382019043 14.06893634796143 22.09017372131348 C 17.95164680480957 23.95570373535156 23.05545616149902 24.98310470581055 28.44022560119629 24.98310470581055 C 33.82538604736328 24.98310470581055 38.92947769165039 23.95570373535156 42.81230545043945 22.09017372131348 C 46.68357467651367 20.23018455505371 48.94160461425781 17.73210525512695 49.17045593261719 15.05610466003418 L 49.19006729125977 15.05610466003418 L 49.19001770019531 14.60520458221436 L 49.18986511230469 -1.885255575180054 L 53.14209747314453 -3.672855615615845 L 53.14273452758789 17.48250389099121 L 53.14273452758789 17.9829044342041 L 53.11957550048828 17.9829044342041 C 52.84639739990234 20.94793510437012 50.15752792358398 23.71629524230957 45.5493049621582 25.77712440490723 C 40.92698669433594 27.84427452087402 34.85117721557617 28.98270416259766 28.44111633300781 28.98270416259766 Z"/>
      </g>
    </g>
  </g>
</svg>
