<svg xmlns="http://www.w3.org/2000/svg" xmlns:xlink="http://www.w3.org/1999/xlink" width="80" height="80" viewBox="0 0 80 80">
  <defs>
    <style>
      .cls-1 {
        fill: #fff;
      }

      .cls-2 {
        clip-path: url(#clip-path);
      }

      .cls-3 {
        fill: rgba(169,248,255,0.3);
      }

      .cls-4 {
        fill: #a9f8ff;
      }
    </style>
    <clipPath id="clip-path">
      <rect id="矩形_4316" data-name="矩形 4316" class="cls-1" width="80" height="80" transform="translate(917 1600)"/>
    </clipPath>
  </defs>
  <g id="xxfb_sel" class="cls-2" transform="translate(-917 -1600)">
    <g id="信息发布1" transform="translate(-3 -85)">
      <path id="联合_590" data-name="联合 590" class="cls-3" d="M-6388,7504a4,4,0,0,1-4-4v-16a4,4,0,0,1,4-4h16l7.128,7.126a4.72,4.72,0,0,0,2.463,1.373c.326.008,1.022.01,2.194.01,1.281,0,2.9,0,3.859-.008.919,0,2.5.008,3.808.008,1.2,0,1.917,0,2.247-.01a4.727,4.727,0,0,0,2.463-1.373l7.126-7.126H-6324a4,4,0,0,1,4,4v16a4,4,0,0,1-4,4Zm32.9-19.492h-.151c-.218,0-.425,0-.64,0l-.471,0-.6,0c-.558,0-1.64.006-2.635.006-1.058,0-1.572,0-1.819-.01a4.742,4.742,0,0,1-2.465-1.373L-6371,7476h-11v-32a4,4,0,0,1,4-4h44a4,4,0,0,1,4,4v32h-11.71l-7.132,7.128a4.625,4.625,0,0,1-2.459,1.375c-.25.006-.844.01-2.247.01C-6354.2,7484.511-6354.677,7484.511-6355.1,7484.509Z" transform="translate(7316.001 -5747)"/>
      <path id="联合_595" data-name="联合 595" class="cls-4" d="M-6388,7504a4,4,0,0,1-4-4v-16a4.005,4.005,0,0,1,4-4v18a2,2,0,0,0,2,2h60a2,2,0,0,0,2-2v-18a4,4,0,0,1,4,4v16a4,4,0,0,1-4,4Zm37.051-19.546a5.037,5.037,0,0,0,1.966-1.194,4.934,4.934,0,0,1-1.966,1.2ZM-6382,7476v-32a4,4,0,0,1,4-4h44a4,4,0,0,1,4,4v32h-4v-30a2,2,0,0,0-2-2h-40a2,2,0,0,0-2,2v30Zm22.043-1.523a.626.626,0,0,1-.212-.67l.864-2.874a.62.62,0,0,1,.314-.375.617.617,0,0,1,.488-.032l2.479.863a.625.625,0,0,1,.412.523.624.624,0,0,1-.3.6l-3.345,2.01a.626.626,0,0,1-.322.089A.619.619,0,0,1-6359.957,7474.476Zm10.62-3.011-7.916-2.542a1.243,1.243,0,0,1-.8-.786,1.245,1.245,0,0,1,.158-1.111l6.03-8.648-10.177,8.716a1.248,1.248,0,0,1-1.235.224l-5.906-2.149a1.244,1.244,0,0,1-.815-1.068,1.244,1.244,0,0,1,.631-1.187h0l22.786-12.755a1.247,1.247,0,0,1,1.32.064,1.247,1.247,0,0,1,.518,1.216l-2.987,19.032a1.238,1.238,0,0,1-.578.866,1.246,1.246,0,0,1-.654.186A1.234,1.234,0,0,1-6349.337,7471.464Z" transform="translate(7316 -5747)"/>
    </g>
  </g>
</svg>
