<svg xmlns="http://www.w3.org/2000/svg" xmlns:xlink="http://www.w3.org/1999/xlink" width="80" height="80" viewBox="0 0 80 80">
  <defs>
    <style>
      .cls-1 {
        fill: #fff;
      }

      .cls-2 {
        clip-path: url(#clip-path);
      }

      .cls-3 {
        fill: rgba(169,248,255,0.3);
        stroke: #a9f8ff;
        stroke-width: 4px;
      }

      .cls-4 {
        fill: #a9f8ff;
      }

      .cls-5 {
        stroke: none;
      }

      .cls-6 {
        fill: none;
      }
    </style>
    <clipPath id="clip-path">
      <rect id="矩形_4195" data-name="矩形 4195" class="cls-1" width="80" height="80" transform="translate(138 1376)"/>
    </clipPath>
  </defs>
  <g id="tp_sel" class="cls-2" transform="translate(-138 -1376)">
    <g id="拓扑1" transform="translate(8 -20)">
      <g id="矩形_4187" data-name="矩形 4187" class="cls-3" transform="translate(133 1406)">
        <path class="cls-5" d="M4,0H70a4,4,0,0,1,4,4V48a0,0,0,0,1,0,0H0a0,0,0,0,1,0,0V4A4,4,0,0,1,4,0Z"/>
        <rect class="cls-6" x="2" y="2" width="70" height="44" rx="2"/>
      </g>
      <path id="矩形_4188" data-name="矩形 4188" class="cls-4" d="M0,0H74a0,0,0,0,1,0,0V4a4,4,0,0,1-4,4H4A4,4,0,0,1,0,4V0A0,0,0,0,1,0,0Z" transform="translate(133 1458)"/>
      <g id="组_207" data-name="组 207" transform="translate(-336 1113)">
        <rect id="矩形_4189" data-name="矩形 4189" class="cls-4" width="4" height="12" rx="2" transform="translate(487 317)"/>
        <g id="组_206" data-name="组 206" transform="translate(0 1)">
          <rect id="矩形_4190" data-name="矩形 4190" class="cls-4" width="12" height="12" rx="6" transform="translate(483 300)"/>
          <rect id="矩形_4191" data-name="矩形 4191" class="cls-4" width="26" height="4" rx="2" transform="translate(499 304)"/>
          <rect id="矩形_4192" data-name="矩形 4192" class="cls-4" width="26" height="4" rx="2" transform="translate(487 324)"/>
          <rect id="矩形_4193" data-name="矩形 4193" class="cls-4" width="4" height="12" rx="2" transform="translate(521 304)"/>
          <rect id="矩形_4194" data-name="矩形 4194" class="cls-4" width="12" height="12" rx="6" transform="translate(517 320)"/>
        </g>
      </g>
    </g>
  </g>
</svg>
