<svg xmlns="http://www.w3.org/2000/svg" xmlns:xlink="http://www.w3.org/1999/xlink" width="80" height="80" viewBox="0 0 80 80">
  <defs>
    <style>
      .cls-1 {
        fill: #fff;
      }

      .cls-2 {
        clip-path: url(#clip-path);
      }

      .cls-3 {
        fill: rgba(169,248,255,0.3);
        stroke: #a9f8ff;
        stroke-width: 4px;
      }

      .cls-4 {
        fill: #a9f8ff;
      }

      .cls-5 {
        stroke: none;
      }

      .cls-6 {
        fill: none;
      }
    </style>
    <clipPath id="clip-path">
      <rect id="矩形_4323" data-name="矩形 4323" class="cls-1" width="80" height="80" transform="translate(1693 994)"/>
    </clipPath>
  </defs>
  <g id="yydd_sel" class="cls-2" transform="translate(-1693 -994)">
    <g id="语音调度1" transform="translate(62 496)">
      <g id="矩形_4317" data-name="矩形 4317" class="cls-3" transform="translate(1656 502)">
        <rect class="cls-5" width="30" height="46" rx="15"/>
        <rect class="cls-6" x="2" y="2" width="26" height="42" rx="13"/>
      </g>
      <g id="组_213" data-name="组 213" transform="translate(773 409)">
        <path id="联合_596" data-name="联合 596" class="cls-4" d="M-6375.288,7473.722a28.884,28.884,0,0,1-9.218-6.216,28.891,28.891,0,0,1-6.216-9.218,28.75,28.75,0,0,1-2.133-8.368A3,3,0,0,1-6393,7449a3,3,0,0,1,3-3,3,3,0,0,1,3,3h.084A23.139,23.139,0,0,0-6364,7470a23.141,23.141,0,0,0,22.915-21h.086a3,3,0,0,1,3-3,3,3,0,0,1,3,3,3,3,0,0,1-.145.924,28.814,28.814,0,0,1-2.134,8.365,28.891,28.891,0,0,1-6.216,9.218,28.9,28.9,0,0,1-9.218,6.216A28.793,28.793,0,0,1-6364,7476,28.807,28.807,0,0,1-6375.288,7473.722Z" transform="translate(7262 -7323)"/>
        <rect id="矩形_4321" data-name="矩形 4321" class="cls-4" width="6" height="16" rx="3" transform="translate(895 148)"/>
        <rect id="矩形_4322" data-name="矩形 4322" class="cls-4" width="40" height="6" rx="3" transform="translate(878 160)"/>
      </g>
    </g>
  </g>
</svg>
