<svg xmlns="http://www.w3.org/2000/svg" xmlns:xlink="http://www.w3.org/1999/xlink" width="80" height="80" viewBox="0 0 80 80">
  <defs>
    <style>
      .cls-1 {
        fill: #fff;
      }

      .cls-2 {
        clip-path: url(#clip-path);
      }
    </style>
    <clipPath id="clip-path">
      <rect id="矩形_4108" data-name="矩形 4108" class="cls-1" width="80" height="80" transform="translate(722 181)"/>
    </clipPath>
  </defs>
  <g id="通讯录" class="cls-2" transform="translate(-722 -181)">
    <path id="通讯录-2" data-name="通讯录" class="cls-1" d="M-6326,7510h-54a4.006,4.006,0,0,1-4-4v-3h2a8.01,8.01,0,0,0,8-8,8.009,8.009,0,0,0-8-8h-2v-4h2a8.009,8.009,0,0,0,8-8,8.01,8.01,0,0,0-8-8h-2v-4h2a8.009,8.009,0,0,0,8-8,8.009,8.009,0,0,0-8-8h-2v-3a4,4,0,0,1,4-4h54a4,4,0,0,1,4,4v62A4,4,0,0,1-6326,7510Zm-29-33a9.011,9.011,0,0,0-9,9,3,3,0,0,0,3,3h18a3,3,0,0,0,3-3,9.011,9.011,0,0,0-9-9Zm3-16a7.008,7.008,0,0,0-7,7,7.008,7.008,0,0,0,7,7,7.008,7.008,0,0,0,7-7A7.008,7.008,0,0,0-6352,7461Zm-30,38h-6a4,4,0,0,1-4-4,4,4,0,0,1,4-4h6a4,4,0,0,1,4,4A4,4,0,0,1-6382,7499Zm0-20h-6a4.006,4.006,0,0,1-4-4,4,4,0,0,1,4-4h6a4,4,0,0,1,4,4A4,4,0,0,1-6382,7479Zm0-20h-6a4,4,0,0,1-4-4,4,4,0,0,1,4-4h6a4,4,0,0,1,4,4A4,4,0,0,1-6382,7459Z" transform="translate(7119 -7253.999)"/>
  </g>
</svg>
