<svg xmlns="http://www.w3.org/2000/svg" xmlns:xlink="http://www.w3.org/1999/xlink" width="80" height="80" viewBox="0 0 80 80">
  <defs>
    <style>
      .cls-1 {
        fill: #fff;
      }

      .cls-2 {
        clip-path: url(#clip-path);
      }
    </style>
    <clipPath id="clip-path">
      <rect id="矩形_4100" data-name="矩形 4100" class="cls-1" width="80" height="80" transform="translate(582 373)"/>
    </clipPath>
  </defs>
  <g id="呼叫中心1" class="cls-2" transform="translate(-582 -373)">
    <path id="呼叫中心1-2" data-name="呼叫中心1" class="cls-1" d="M-6347.311,7503.314A15.9,15.9,0,0,1-6352,7492a15.9,15.9,0,0,1,4.688-11.315A15.891,15.891,0,0,1-6336,7476a15.89,15.89,0,0,1,11.311,4.688A15.888,15.888,0,0,1-6320,7492a15.888,15.888,0,0,1-4.688,11.313A15.89,15.89,0,0,1-6336,7508,15.891,15.891,0,0,1-6347.311,7503.314Zm4.678-17.038c-.1.109-.209.22-.312.324-.571.571-.548,1.871.06,3.478a16.976,16.976,0,0,0,3.9,5.685c3.229,3.229,6.258,4.375,7.869,4.375a1.806,1.806,0,0,0,1.294-.411c.091-.092.187-.183.294-.285.586-.558,1.25-1.191,1.217-1.958a2.279,2.279,0,0,0-1.034-1.585,3.669,3.669,0,0,0-2.067-.993c-.643,0-1.051.441-1.526.953l-.1.105a.691.691,0,0,1-.482.177c-.891,0-2.329-1.264-3.482-2.365-2.069-2.071-2.808-3.344-2.256-3.9l.179-.177c.869-.855,1.555-1.53-.111-3.516a2.256,2.256,0,0,0-1.645-1.085C-6341.532,7485.106-6342.116,7485.729-6342.633,7486.277ZM-6348,7508H-6384a8.011,8.011,0,0,1-8-8,23.842,23.842,0,0,1,7.03-16.97A23.844,23.844,0,0,1-6368,7476h20a19.85,19.85,0,0,0-8,16,19.854,19.854,0,0,0,7.993,16l0,0Zm-27.722-41.275A17.877,17.877,0,0,1-6381,7454a17.878,17.878,0,0,1,5.274-12.727A17.885,17.885,0,0,1-6363,7436a17.882,17.882,0,0,1,12.726,5.272A17.876,17.876,0,0,1-6345,7454a17.869,17.869,0,0,1-5.274,12.728A17.869,17.869,0,0,1-6363,7472,17.876,17.876,0,0,1-6375.726,7466.726Z" transform="translate(6978 -7059)"/>
  </g>
</svg>
