<svg xmlns="http://www.w3.org/2000/svg" xmlns:xlink="http://www.w3.org/1999/xlink" width="80" height="80" viewBox="0 0 80 80">
  <defs>
    <style>
      .cls-1 {
        fill: #fff;
      }

      .cls-2 {
        clip-path: url(#clip-path);
      }
    </style>
    <clipPath id="clip-path">
      <rect id="矩形_4107" data-name="矩形 4107" class="cls-1" width="80" height="80" transform="translate(582 181)"/>
    </clipPath>
  </defs>
  <g id="隐患排查" class="cls-2" transform="translate(-582 -181)">
    <path id="隐患排查-2" data-name="隐患排查" class="cls-1" d="M-6340.264,7506.363a15.9,15.9,0,0,1-4.686-11.314,15.9,15.9,0,0,1,4.686-11.313,15.885,15.885,0,0,1,11.312-4.688,15.886,15.886,0,0,1,11.314,4.688,15.9,15.9,0,0,1,4.686,11.313,15.9,15.9,0,0,1-4.686,11.314,15.892,15.892,0,0,1-11.314,4.687A15.891,15.891,0,0,1-6340.264,7506.363Zm17.312-2.484a1.994,1.994,0,0,0,1.416.586,1.992,1.992,0,0,0,1.412-.586,2.006,2.006,0,0,0,0-2.829l-2.937-2.937a7.981,7.981,0,0,0,1.11-4.062,8.01,8.01,0,0,0-8-8,8.008,8.008,0,0,0-8,8,8.008,8.008,0,0,0,8,8,7.988,7.988,0,0,0,4.063-1.11Zm-24.335-.828h-40.706a3.958,3.958,0,0,1-3.468-2.007,3.961,3.961,0,0,1,.011-4.008l32.043-55.048a3.959,3.959,0,0,1,3.458-1.987,3.961,3.961,0,0,1,3.457,1.987l19.483,33.473a20.065,20.065,0,0,0-15.941,19.589,19.846,19.846,0,0,0,1.665,8h0Zm-12.321-10.959a3.678,3.678,0,0,0,3.7,3.651,3.678,3.678,0,0,0,3.694-3.651,3.678,3.678,0,0,0-3.694-3.651A3.678,3.678,0,0,0-6359.608,7492.092Zm0-31v20a3.7,3.7,0,0,0,3.7,3.695,3.7,3.7,0,0,0,3.694-3.695v-20a3.7,3.7,0,0,0-3.694-3.695A3.7,3.7,0,0,0-6359.608,7461.095Zm25.657,32.956a4,4,0,0,1,4-4,4.006,4.006,0,0,1,4,4,4.005,4.005,0,0,1-4,4A4,4,0,0,1-6333.951,7494.05Z" transform="translate(6975 -7255)"/>
  </g>
</svg>
