<svg xmlns="http://www.w3.org/2000/svg" xmlns:xlink="http://www.w3.org/1999/xlink" width="80" height="80" viewBox="0 0 80 80">
  <defs>
    <style>
      .cls-1 {
        fill: #fff;
      }

      .cls-2 {
        clip-path: url(#clip-path);
      }
    </style>
    <clipPath id="clip-path">
      <rect id="矩形_4110" data-name="矩形 4110" class="cls-1" width="80" height="80" transform="translate(1121 181)"/>
    </clipPath>
  </defs>
  <g id="值班管理" class="cls-2" transform="translate(-1121 -181)">
    <path id="值班管理-2" data-name="值班管理" class="cls-1" d="M-6355.314,7512.313A15.893,15.893,0,0,1-6360,7501a15.9,15.9,0,0,1,4.688-11.315A15.9,15.9,0,0,1-6344,7485a15.89,15.89,0,0,1,11.312,4.688A15.9,15.9,0,0,1-6328,7501a15.891,15.891,0,0,1-4.688,11.312A15.888,15.888,0,0,1-6344,7517,15.893,15.893,0,0,1-6355.314,7512.313Zm3.313-4.245a1.931,1.931,0,0,0,1.928,1.93h12.144a1.931,1.931,0,0,0,1.928-1.93,5.791,5.791,0,0,0-5.786-5.784h-4.428A5.792,5.792,0,0,0-6352,7508.068Zm3.333-11.568A4.591,4.591,0,0,0-6344,7501a4.593,4.593,0,0,0,4.667-4.5A4.592,4.592,0,0,0-6344,7492,4.59,4.59,0,0,0-6348.668,7496.5ZM-6356,7517h-32a4,4,0,0,1-4-4v-60a4,4,0,0,1,4-4h6v7.876a4,4,0,0,0,4,4h32a4,4,0,0,0,4-4V7449h6a4,4,0,0,1,4,4v32a19.825,19.825,0,0,0-12-4,20.023,20.023,0,0,0-20,20,19.851,19.851,0,0,0,8,16h0Zm-24-32a2,2,0,0,0,2,2h12a2,2,0,0,0,2-2,2,2,0,0,0-2-2h-12A2,2,0,0,0-6380,7485Zm0-12a2,2,0,0,0,2,2h32a2,2,0,0,0,2-2,2,2,0,0,0-2-2h-32A2,2,0,0,0-6380,7473Zm4-16a2,2,0,0,1-2-2v-6h6a4,4,0,0,1,4-4h12a4,4,0,0,1,4,4h6v6a2,2,0,0,1-2,2Z" transform="translate(7520.997 -7260)"/>
  </g>
</svg>
