<svg xmlns="http://www.w3.org/2000/svg" xmlns:xlink="http://www.w3.org/1999/xlink" width="80" height="80" viewBox="0 0 80 80">
  <defs>
    <style>
      .cls-1 {
        fill: #fff;
      }

      .cls-2 {
        clip-path: url(#clip-path);
      }
    </style>
    <clipPath id="clip-path">
      <rect id="矩形_4118" data-name="矩形 4118" class="cls-1" width="80" height="80" transform="translate(441 550)"/>
    </clipPath>
  </defs>
  <g id="动态感知" class="cls-2" transform="translate(-441 -550)">
    <path id="动态感知-2" data-name="动态感知" class="cls-1" d="M-6334,7506.415a4,4,0,0,1-4-4v-34a4,4,0,0,1,4-4h6a4,4,0,0,1,4,4v34a4,4,0,0,1-4,4Zm-18,0a4,4,0,0,1-4-4v-20a4,4,0,0,1,4-4h6a4,4,0,0,1,4,4v20a4,4,0,0,1-4,4Zm-18,0a4,4,0,0,1-4-4v-28a4,4,0,0,1,4-4h6a4,4,0,0,1,4,4v28a4,4,0,0,1-4,4Zm-18,0a4,4,0,0,1-4-4v-12a4,4,0,0,1,4-4h6a4,4,0,0,1,4,4v12a4,4,0,0,1-4,4Zm-1.254-32.248a2,2,0,0,1,0-2.828l19.8-19.8a2,2,0,0,1,1.5-.583,1.991,1.991,0,0,1,1.527.583l14.486,14.486,16.826-16.826-3.543-3.543,10.606-.707-.707,10.606-3.528-3.528-18.138,18.14a2,2,0,0,1-2.589.206,2,2,0,0,1-.684-.448l-14.243-14.241-18.486,18.483a1.993,1.993,0,0,1-1.415.586A1.993,1.993,0,0,1-6389.254,7474.167Z" transform="translate(6839.001 -6885.95)"/>
  </g>
</svg>
