<svg xmlns="http://www.w3.org/2000/svg" xmlns:xlink="http://www.w3.org/1999/xlink" width="80" height="80" viewBox="0 0 80 80">
  <defs>
    <style>
      .cls-1 {
        fill: #fff;
      }

      .cls-2 {
        clip-path: url(#clip-path);
      }
    </style>
    <clipPath id="clip-path">
      <rect id="矩形_4115" data-name="矩形 4115" class="cls-1" width="80" height="80" transform="translate(1413 181)"/>
    </clipPath>
  </defs>
  <g id="教育培训" class="cls-2" transform="translate(-1413 -181)">
    <path id="教育培训-2" data-name="教育培训" class="cls-1" d="M-6352.4,7506.03a42.427,42.427,0,0,1-17.677-3.464c-4.722-2.234-7.322-5.2-7.322-8.364v-18.681l23.165,10.1a5.007,5.007,0,0,0,1.372.38,3.372,3.372,0,0,0,.458.032h.009a4.3,4.3,0,0,0,.456-.027V7486a4.933,4.933,0,0,0,1.364-.377l.008,0,23.168-10.1V7494.2c0,3.16-2.6,6.13-7.322,8.364A42.427,42.427,0,0,1-6352.4,7506.03Zm33.568-14.757a1.987,1.987,0,0,1-1.415-.586l-4.242-4.242a1.99,1.99,0,0,1-.586-1.417,1.984,1.984,0,0,1,.586-1.413l3.085-3.086V7476.3l0-5.732-31.564-15.447c-1.219-.595-2.185-1.123-2.191-1.126a4.389,4.389,0,0,0-.843,3.211,4.807,4.807,0,0,0,2.616,3.141l24.149,12.047-21.333,9.256-.015.006a5.112,5.112,0,0,1-1.36.375,3.26,3.26,0,0,1-.456.03h-.009a4.037,4.037,0,0,1-.458-.026,5.181,5.181,0,0,1-1.361-.38l-.007,0-35.349-15.339a4.633,4.633,0,0,1-2.822-4.169.891.891,0,0,1,0-.1.841.841,0,0,1,0-.1,4.633,4.633,0,0,1,2.822-4.169l35.345-15.338.014-.006a5.111,5.111,0,0,1,1.358-.375,3.4,3.4,0,0,1,.458-.03h.006a3.589,3.589,0,0,1,.459.028,5.181,5.181,0,0,1,1.357.375l.018.008,35.345,15.338a4.618,4.618,0,0,1,2.822,4.169c0,.017,0,.034,0,.051s0,.033,0,.049,0,.034,0,.051,0,.034,0,.05a4.33,4.33,0,0,1-1.4,3.229,4.829,4.829,0,0,1-1.42.94l-2.259.979a3.985,3.985,0,0,1,1.076,2.854v10.236l3.229,3.229a2,2,0,0,1,0,2.829l-4.242,4.242A1.994,1.994,0,0,1-6318.833,7491.273Z" transform="translate(7805.403 -7253.029)"/>
  </g>
</svg>
