<svg xmlns="http://www.w3.org/2000/svg" xmlns:xlink="http://www.w3.org/1999/xlink" width="80" height="80" viewBox="0 0 80 80">
  <defs>
    <style>
      .cls-1 {
        fill: #fff;
      }

      .cls-2 {
        clip-path: url(#clip-path);
      }
    </style>
    <clipPath id="clip-path">
      <rect id="矩形_4103" data-name="矩形 4103" class="cls-1" width="80" height="80" transform="translate(148 369)"/>
    </clipPath>
  </defs>
  <g id="电子沙盘" class="cls-2" transform="translate(-148 -369)">
    <path id="电子沙盘-2" data-name="电子沙盘" class="cls-1" d="M-6337.093,7506.032l-.927-16.625a29.736,29.736,0,0,0,3.114-.521c1.206-.3,2.845-.861,3.162-.972l.007,0-1.461-3.716-.022.009c-.464.163-1.657.57-2.721.824a16.864,16.864,0,0,1-2.3.362l-1.88-33.724,14.981-6.293a5.209,5.209,0,0,1,1.807-.326,3.544,3.544,0,0,1,1.916.51,4.2,4.2,0,0,1,1.9,2.615l.211,1.292a14.7,14.7,0,0,0-3.667-.463c-7.72,0-14,6.019-14,13.417.036,6.283,3.841,11.545,7.026,14.854a39.416,39.416,0,0,0,6.974,5.73l.005,0a37.489,37.489,0,0,0,8.008-6.81l2.965,18.228a4.732,4.732,0,0,1-.618,2.743,4.05,4.05,0,0,1-1.875,1.562l-22.6,7.311Zm9.884-24.727h0l-2.481,1.374,1.822,3.509,2.958-1.637-2.3-3.246Zm-10.905,24.646h0l-31.7-11.143,5.843-54.778,22.99,11.7,2.871,54.22Zm-8.225-22.883h0l-2.5,3.225a17.355,17.355,0,0,0,3.089,1.854,29.765,29.765,0,0,0,3.09.962l.789-3.813c-.013,0-1.271-.447-2.4-.823a5.743,5.743,0,0,1-2.061-1.406Zm-5.943-6.977h0l-3.459,2.006a20.37,20.37,0,0,0,1.716,2.7c.821,1,2,2.5,2.006,2.507l2.933-2.641c-.007-.008-1.186-1.6-1.613-2.112-.4-.47-1.461-2.25-1.581-2.452l0,0Zm-4.7-8.848h0l-3.5,2.063c.009.018.633,1.193,1.441,2.607a27.548,27.548,0,0,1,1.305,2.573l3.64-1.818c-.01-.021-.728-1.493-1.236-2.472-.481-.927-1.528-2.743-1.646-2.947l0-.007Zm-6.6-8.24h0l-2.669,3.037.005,0a15.909,15.909,0,0,1,1.977,1.952c.9,1.08,1.712,2.08,1.716,2.085l3.17-2.351c-.006-.007-.99-1.388-1.876-2.4S-6363.559,7459.025-6363.583,7459Zm-24.438,42.588a3.843,3.843,0,0,1-2.54-.908,4.009,4.009,0,0,1-1.4-3.652l6.67-45.672a5.187,5.187,0,0,1,.765-1.89,5.078,5.078,0,0,1,1.844-1.422l17.7-8.047-6,55-15.562,6.341-.009,0A4.557,4.557,0,0,1-6388.021,7501.592Zm13.047-48.592a4,4,0,0,0-4,4,4,4,0,0,0,4,4,4.006,4.006,0,0,0,3.287-1.724c.128.02.259.045.392.073a10.3,10.3,0,0,1,2.085.688l1.745-3.515a11,11,0,0,0-3.593-1.266c-.114-.012-.226-.022-.332-.029A3.98,3.98,0,0,0-6374.974,7453Zm52,25h0l-.014-.009a28.555,28.555,0,0,1-4.966-4.206,21.275,21.275,0,0,1-3.437-4.783,13.635,13.635,0,0,1-1.584-6.137,9.946,9.946,0,0,1,10-9.865,9.944,9.944,0,0,1,10,9.865,14.127,14.127,0,0,1-1.624,6.22,21,21,0,0,1-3.43,4.773,26.676,26.676,0,0,1-4.945,4.141Zm0-19a4,4,0,0,0-4,4,4,4,0,0,0,4,4,4,4,0,0,0,4-4A4,4,0,0,0-6322.974,7459Z" transform="translate(6540.001 -7064)"/>
  </g>
</svg>
