<svg xmlns="http://www.w3.org/2000/svg" xmlns:xlink="http://www.w3.org/1999/xlink" width="80" height="80" viewBox="0 0 80 80">
  <defs>
    <style>
      .cls-1 {
        fill: #fff;
      }

      .cls-2 {
        clip-path: url(#clip-path);
      }
    </style>
    <clipPath id="clip-path">
      <rect id="矩形_4114" data-name="矩形 4114" class="cls-1" width="80" height="80" transform="translate(1556 181)"/>
    </clipPath>
  </defs>
  <g id="GIS" class="cls-2" transform="translate(-1556 -181)">
    <path id="GIS-2" data-name="GIS" class="cls-1" d="M-6382.627,7515.9a21.457,21.457,0,0,1-6.858-4.45A7.844,7.844,0,0,1-6392,7506a7.845,7.845,0,0,1,2.514-5.45,21.357,21.357,0,0,1,6.858-4.448,39.27,39.27,0,0,1,3.85-1.442c1.168,1.455,2.438,2.9,3.778,4.3.206.215.412.428.614.634a23.857,23.857,0,0,0-7,2.769c-1.738,1.132-2.619,2.355-2.619,3.633,0,4.413,10.767,8,24,8s24-3.587,24-8c0-1.278-.881-2.5-2.619-3.633a23.83,23.83,0,0,0-6.995-2.769c.183-.189.385-.395.614-.634,1.338-1.4,2.608-2.85,3.776-4.3a39.544,39.544,0,0,1,3.852,1.442,21.354,21.354,0,0,1,6.856,4.448A7.845,7.845,0,0,1-6328,7506a7.84,7.84,0,0,1-2.516,5.451,21.454,21.454,0,0,1-6.856,4.45c-6.049,2.644-14.085,4.1-22.627,4.1S-6376.58,7518.546-6382.627,7515.9ZM-6360,7506v-30a10.013,10.013,0,0,0,10-10,10.014,10.014,0,0,0-10-10v-16a25.819,25.819,0,0,1,10.119,2.044,25.924,25.924,0,0,1,8.265,5.573,25.874,25.874,0,0,1,5.571,8.265A25.817,25.817,0,0,1-6334,7466a38.154,38.154,0,0,1-4.063,16.991,50.987,50.987,0,0,1-8.936,12.554A63.164,63.164,0,0,1-6360,7506Zm0,0a62.32,62.32,0,0,1-13-10.452,50.913,50.913,0,0,1-8.938-12.554A38.167,38.167,0,0,1-6386,7466a25.849,25.849,0,0,1,2.042-10.121,25.929,25.929,0,0,1,5.571-8.265,25.925,25.925,0,0,1,8.265-5.573A25.829,25.829,0,0,1-6360,7440v16a10.013,10.013,0,0,0-10,10,10.011,10.011,0,0,0,10,10v16l0,6h0v8Z" transform="translate(7956 -7259)"/>
  </g>
</svg>
