<svg xmlns="http://www.w3.org/2000/svg" xmlns:xlink="http://www.w3.org/1999/xlink" width="80" height="80" viewBox="0 0 80 80">
  <defs>
    <style>
      .cls-1 {
        fill: #fff;
      }

      .cls-2 {
        clip-path: url(#clip-path);
      }
    </style>
    <clipPath id="clip-path">
      <rect id="矩形_4119" data-name="矩形 4119" class="cls-1" width="80" height="80" transform="translate(582 550)"/>
    </clipPath>
  </defs>
  <g id="信息发布" class="cls-2" transform="translate(-582 -550)">
    <path id="信息发布-2" data-name="信息发布" class="cls-1" d="M-6324,7504h-64a4.005,4.005,0,0,1-4-4v-16a4,4,0,0,1,4-4h16l7.128,7.126a4.774,4.774,0,0,0,2.463,1.375c.334.006,1.052.009,2.194.009.773,0,1.677,0,2.473,0h.448l.938,0,.857,0c.99,0,2.033.005,2.951.005,1.171,0,1.906,0,2.247-.009a4.72,4.72,0,0,0,2.461-1.374l7.13-7.127H-6324a4,4,0,0,1,4,4v16A4.005,4.005,0,0,1-6324,7504Zm-29.548-19.49h-1.7c-.222,0-.428,0-.643,0l-.471,0h-.6c-1.044,0-1.93.005-2.633.005-.978,0-1.556,0-1.819-.009a4.7,4.7,0,0,1-2.467-1.373L-6371,7476h-11v-32a4,4,0,0,1,4-4h44a4,4,0,0,1,4,4v32h-11.712l-7.132,7.128a4.639,4.639,0,0,1-2.459,1.375C-6351.586,7484.508-6352.278,7484.511-6353.55,7484.511Zm-5.162-16.022a.625.625,0,0,0-.281.068.626.626,0,0,0-.312.376l-.864,2.872a.622.622,0,0,0,.212.67.625.625,0,0,0,.382.132.622.622,0,0,0,.32-.09l3.343-2.01a.619.619,0,0,0,.3-.6.622.622,0,0,0-.413-.522l-2.479-.864A.636.636,0,0,0-6358.711,7468.489Zm6.841-12.106h0l-6.026,8.644a1.242,1.242,0,0,0-.158,1.109,1.252,1.252,0,0,0,.8.788l7.916,2.541a1.241,1.241,0,0,0,.38.06,1.248,1.248,0,0,0,.653-.187,1.241,1.241,0,0,0,.576-.866l2.987-19.032a1.233,1.233,0,0,0-.518-1.215,1.235,1.235,0,0,0-.712-.225,1.242,1.242,0,0,0-.606.159l-22.786,12.755a1.251,1.251,0,0,0-.635,1.187,1.252,1.252,0,0,0,.815,1.07l5.908,2.147a1.246,1.246,0,0,0,.425.075,1.243,1.243,0,0,0,.809-.3Z" transform="translate(6978 -6882)"/>
  </g>
</svg>
