<svg xmlns="http://www.w3.org/2000/svg" xmlns:xlink="http://www.w3.org/1999/xlink" width="80" height="80" viewBox="0 0 80 80">
  <defs>
    <style>
      .cls-1 {
        fill: #fff;
      }

      .cls-2 {
        clip-path: url(#clip-path);
      }
    </style>
    <clipPath id="clip-path">
      <rect id="矩形_4102" data-name="矩形 4102" class="cls-1" width="80" height="80" transform="translate(296 369)"/>
    </clipPath>
  </defs>
  <g id="知识库" class="cls-2" transform="translate(-296 -369)">
    <path id="知识库-2" data-name="知识库" class="cls-1" d="M-6332,7511h-56a4.007,4.007,0,0,1-4-4v-64a4.006,4.006,0,0,1,4-4h32v24a2.151,2.151,0,0,0,1,1.738,1.74,1.74,0,0,0,.931.262,2.331,2.331,0,0,0,1.145-.326l5.846-4.358a1.074,1.074,0,0,1,.1-.061l.038-.019.017-.008.011-.005A2.188,2.188,0,0,1-6346,7460a2.227,2.227,0,0,1,.88.2,1.432,1.432,0,0,1,.132.068c.043.024.066.04.066.04l5.844,4.358a2.347,2.347,0,0,0,1.148.326,1.755,1.755,0,0,0,.931-.261,2.152,2.152,0,0,0,1-1.738v-24h4a4.006,4.006,0,0,1,4,4v52l-4,0h-48a4.006,4.006,0,0,0-4,4,4.006,4.006,0,0,0,4,4l52,.211V7507a5.359,5.359,0,0,1-.564,2A3.631,3.631,0,0,1-6332,7511Z" transform="translate(6695 -7066)"/>
  </g>
</svg>
