<svg xmlns="http://www.w3.org/2000/svg" xmlns:xlink="http://www.w3.org/1999/xlink" width="80" height="80" viewBox="0 0 80 80">
  <defs>
    <style>
      .cls-1 {
        fill: #fff;
      }

      .cls-2 {
        clip-path: url(#clip-path);
      }
    </style>
    <clipPath id="clip-path">
      <rect id="矩形_4113" data-name="矩形 4113" class="cls-1" width="80" height="80" transform="translate(1700 181)"/>
    </clipPath>
  </defs>
  <g id="消息" class="cls-2" transform="translate(-1700 -181)">
    <path id="消息-2" data-name="消息" class="cls-1" d="M-6366,7503.528v-.009h0V7496h-10a4.007,4.007,0,0,1-4-4v-36a4,4,0,0,1,4-4h60a4,4,0,0,1,4,4v36a4.006,4.006,0,0,1-4,4h-37.246l-8.447,9.072a2.4,2.4,0,0,1-1.888.925A2.445,2.445,0,0,1-6366,7503.528ZM-6332,7474a6.01,6.01,0,0,0,6,6,6.009,6.009,0,0,0,6-6,6.006,6.006,0,0,0-6-6A6.008,6.008,0,0,0-6332,7474Zm-20,0a6.009,6.009,0,0,0,6,6,6.01,6.01,0,0,0,6-6,6.007,6.007,0,0,0-6-6A6.006,6.006,0,0,0-6352,7474Zm-20,0a6.01,6.01,0,0,0,6,6,6.009,6.009,0,0,0,6-6,6.006,6.006,0,0,0-6-6A6.007,6.007,0,0,0-6372,7474Zm-12,10h-2a6.007,6.007,0,0,1-6-6v-32a6.007,6.007,0,0,1,6-6h56a6.007,6.007,0,0,1,6,6v2h-56a4.005,4.005,0,0,0-4,4v32h0Z" transform="translate(8091.999 -7252)"/>
  </g>
</svg>
