<svg xmlns="http://www.w3.org/2000/svg" xmlns:xlink="http://www.w3.org/1999/xlink" width="80" height="80" viewBox="0 0 80 80">
  <defs>
    <style>
      .cls-1 {
        fill: #fff;
      }

      .cls-2 {
        clip-path: url(#clip-path);
      }
    </style>
    <clipPath id="clip-path">
      <rect id="矩形_4097" data-name="矩形 4097" class="cls-1" width="80" height="80" transform="translate(989 369)"/>
    </clipPath>
  </defs>
  <g id="资产" class="cls-2" transform="translate(-989 -369)">
    <path id="资产-2" data-name="资产" class="cls-1" d="M-6384,7517.687a4,4,0,0,1-4-4v-44a4,4,0,0,1,4-4h64a4,4,0,0,1,4,4v14h-20a8.009,8.009,0,0,0-8,8,8.009,8.009,0,0,0,8,8h20v14a4,4,0,0,1-4,4Zm44-26a4,4,0,0,1,4-4,4,4,0,0,1,4,4,4,4,0,0,1-4,4A4,4,0,0,1-6340,7491.687Zm12.9-30h-34.99l22.782-13.152a3.987,3.987,0,0,1,1.994-.536,4.016,4.016,0,0,1,3.47,2l6.745,11.687,0,0Z" transform="translate(7381.001 -7074)"/>
  </g>
</svg>
