<svg xmlns="http://www.w3.org/2000/svg" xmlns:xlink="http://www.w3.org/1999/xlink" width="80" height="80" viewBox="0 0 80 80">
  <defs>
    <style>
      .cls-1 {
        fill: #fff;
      }

      .cls-2 {
        clip-path: url(#clip-path);
      }
    </style>
    <clipPath id="clip-path">
      <rect id="矩形_4116" data-name="矩形 4116" class="cls-1" width="80" height="80" transform="translate(148 550)"/>
    </clipPath>
  </defs>
  <g id="风险防控" class="cls-2" transform="translate(-148 -550)">
    <path id="风险防控-2" data-name="风险防控" class="cls-1" d="M-6362,7508.553h0a36.177,36.177,0,0,1-11.64-4.443,36.558,36.558,0,0,1-9.384-8,36.364,36.364,0,0,1-6.222-10.729,36.418,36.418,0,0,1-2.252-12.656v-22.769a38.253,38.253,0,0,0,4.5.268,37.449,37.449,0,0,0,25-9.546,37.436,37.436,0,0,0,25,9.546,38.244,38.244,0,0,0,4.5-.268v22.769a36.432,36.432,0,0,1-2.255,12.656,36.36,36.36,0,0,1-6.222,10.731,36.549,36.549,0,0,1-9.383,8,36.181,36.181,0,0,1-11.642,4.443Zm-.667-30.032-2.97,15.2,14.638-22.8h-9.335l2.972-15.2h0l-14.638,22.8Z" transform="translate(6550.5 -6884.675)"/>
  </g>
</svg>
