<svg xmlns="http://www.w3.org/2000/svg" xmlns:xlink="http://www.w3.org/1999/xlink" width="80" height="80" viewBox="0 0 80 80">
  <defs>
    <style>
      .cls-1 {
        fill: #fff;
      }

      .cls-2 {
        clip-path: url(#clip-path);
      }
    </style>
    <clipPath id="clip-path">
      <rect id="矩形_4106" data-name="矩形 4106" class="cls-1" width="80" height="80" transform="translate(441 181)"/>
    </clipPath>
  </defs>
  <g id="录音" class="cls-2" transform="translate(-441 -181)">
    <path id="录音-2" data-name="录音" class="cls-1" d="M-6385,7500a4,4,0,0,1-4-4v-52a4,4,0,0,1,4-4h6.976l4.872,9.8a4.542,4.542,0,0,0,1.451,1.607,5.322,5.322,0,0,0,2.215.6h34.972a5.316,5.316,0,0,0,2.213-.6,4.524,4.524,0,0,0,1.453-1.607l4.872-9.8H-6319a4,4,0,0,1,4,4v52a4,4,0,0,1-4,4Zm41-26a8.01,8.01,0,0,0,8,8,8.009,8.009,0,0,0,8-8,8.008,8.008,0,0,0-8-8A8.009,8.009,0,0,0-6344,7474Zm-32,0a8.01,8.01,0,0,0,8,8,8.01,8.01,0,0,0,8-8,8.009,8.009,0,0,0-8-8A8.009,8.009,0,0,0-6376,7474Zm8-26a4,4,0,0,1-4-4,4,4,0,0,1,4-4h32a4,4,0,0,1,4,4,4,4,0,0,1-4,4Z" transform="translate(6833 -7249)"/>
  </g>
</svg>
