<svg xmlns="http://www.w3.org/2000/svg" xmlns:xlink="http://www.w3.org/1999/xlink" width="80" height="80" viewBox="0 0 80 80">
  <defs>
    <style>
      .cls-1 {
        fill: #fff;
      }

      .cls-2 {
        clip-path: url(#clip-path);
      }
    </style>
    <clipPath id="clip-path">
      <rect id="矩形_4094" data-name="矩形 4094" class="cls-1" width="80" height="80" transform="translate(1121 369)"/>
    </clipPath>
  </defs>
  <g id="系统配置" class="cls-2" transform="translate(-1121 -369)">
    <path id="系统配置-2" data-name="系统配置" class="cls-1" d="M-6360.051,7512v-18.129a16.182,16.182,0,0,1-3.263-2.521,15.9,15.9,0,0,1-4.686-11.314,15.978,15.978,0,0,1,2.206-8.113,16.085,16.085,0,0,1,5.792-5.747v8.887a8.011,8.011,0,0,0,8,8,8.011,8.011,0,0,0,8-8v-8.887a16.131,16.131,0,0,1,5.792,5.747,15.983,15.983,0,0,1,2.206,8.113,15.9,15.9,0,0,1-4.686,11.314,16.041,16.041,0,0,1-3.363,2.578V7512a8.008,8.008,0,0,1-8,8A8.008,8.008,0,0,1-6360.051,7512Zm4-.019a4.005,4.005,0,0,0,4,4,4,4,0,0,0,4-4,4,4,0,0,0-4-4A4,4,0,0,0-6356.05,7511.983Zm22.434.651-1.734-1.736,0,0-.006,0a3.985,3.985,0,0,0-2.64-1,3.978,3.978,0,0,0-2,.538v-14.422a19.849,19.849,0,0,0,8-15.989,20.023,20.023,0,0,0-20-20,20.023,20.023,0,0,0-20,20,19.858,19.858,0,0,0,8,15.989v14.422a3.972,3.972,0,0,0-2-.538,3.985,3.985,0,0,0-2.64,1l-.01-.005-1.734,1.736a3.971,3.971,0,0,1-2.829,1.174,3.967,3.967,0,0,1-2.827-1.174l-8.487-8.5a4.016,4.016,0,0,1,0-5.666l1.734-1.736c0-.006,0-.006,0-.008a4,4,0,0,0,1-2.646,4.006,4.006,0,0,0-3.748-4l0-.005h0l-2.45,0a4.005,4.005,0,0,1-4-4v-12.03a4,4,0,0,1,4-4h2.45s0-.006,0-.007a4.008,4.008,0,0,0,3.748-4,4,4,0,0,0-1-2.646h0l0,0,0-.006-1.734-1.734a4.016,4.016,0,0,1,0-5.666l8.487-8.5a3.967,3.967,0,0,1,2.827-1.174,3.967,3.967,0,0,1,2.829,1.174l1.734,1.736v0h.006a4.015,4.015,0,0,0,2.644,1,4.008,4.008,0,0,0,3.994-3.756h.007V7444a4.005,4.005,0,0,1,4-4h12a4.005,4.005,0,0,1,4,4v2.458h.007a4.008,4.008,0,0,0,3.994,3.756,3.991,3.991,0,0,0,2.642-1l.01,0,1.732-1.734a3.967,3.967,0,0,1,2.827-1.174,3.969,3.969,0,0,1,2.829,1.174l8.485,8.5a4.012,4.012,0,0,1,0,5.666l-1.732,1.736,0,0s0,0,0,.005a4,4,0,0,0-1,2.646,4.01,4.01,0,0,0,3.75,4v.005l2.452,0a4,4,0,0,1,4,4v12.03a4.005,4.005,0,0,1-4,4h-2.45s0,.005,0,.007a4.008,4.008,0,0,0-3.748,4,4.006,4.006,0,0,0,1,2.646l0,.01,1.732,1.734a4.012,4.012,0,0,1,0,5.666l-8.485,8.5a3.972,3.972,0,0,1-2.829,1.174A3.967,3.967,0,0,1-6333.616,7512.634Z" transform="translate(363.352 -9371.633) rotate(-45)"/>
  </g>
</svg>
