<svg xmlns="http://www.w3.org/2000/svg" xmlns:xlink="http://www.w3.org/1999/xlink" width="80" height="80" viewBox="0 0 80 80">
  <defs>
    <style>
      .cls-1 {
        fill: #fff;
      }

      .cls-2 {
        clip-path: url(#clip-path);
      }
    </style>
    <clipPath id="clip-path">
      <rect id="矩形_4104" data-name="矩形 4104" class="cls-1" width="80" height="80" transform="translate(148 181)"/>
    </clipPath>
  </defs>
  <g id="视频监控" class="cls-2" transform="translate(-148 -181)">
    <path id="视频监控-2" data-name="视频监控" class="cls-1" d="M-6383.008,7514a3.955,3.955,0,0,1-3.47-2.012,3.958,3.958,0,0,1,.023-4.017l5.55-9.435A33.07,33.07,0,0,0-6360,7506a33.056,33.056,0,0,0,20.9-7.464l5.55,9.435a3.958,3.958,0,0,1,.026,4.015A3.958,3.958,0,0,1-6337,7514Zm11.718-14.279a28.893,28.893,0,0,1-9.216-6.215,28.918,28.918,0,0,1-6.217-9.218A28.847,28.847,0,0,1-6389,7473a28.852,28.852,0,0,1,2.276-11.29,28.91,28.91,0,0,1,6.217-9.22,28.93,28.93,0,0,1,9.216-6.213A28.822,28.822,0,0,1-6360,7444a28.82,28.82,0,0,1,11.289,2.278,28.963,28.963,0,0,1,9.217,6.213,28.882,28.882,0,0,1,6.214,9.22A28.781,28.781,0,0,1-6331,7473a28.781,28.781,0,0,1-2.28,11.286,28.873,28.873,0,0,1-6.214,9.218,28.958,28.958,0,0,1-9.217,6.215A28.821,28.821,0,0,1-6360,7502,28.823,28.823,0,0,1-6371.29,7499.72ZM-6377,7479a17.019,17.019,0,0,0,17,17,17.022,17.022,0,0,0,17-17,17.02,17.02,0,0,0-17-17A17.018,17.018,0,0,0-6377,7479Zm9,0a8,8,0,0,1,8-8,8,8,0,0,1,8,8,8,8,0,0,1-8,8A8,8,0,0,1-6368,7479Z" transform="translate(6547.999 -7258)"/>
  </g>
</svg>
