<svg xmlns="http://www.w3.org/2000/svg" xmlns:xlink="http://www.w3.org/1999/xlink" width="80" height="80" viewBox="0 0 80 80">
  <defs>
    <style>
      .cls-1 {
        fill: #fff;
      }

      .cls-2 {
        clip-path: url(#clip-path);
      }
    </style>
    <clipPath id="clip-path">
      <rect id="矩形_4096" data-name="矩形 4096" class="cls-1" width="80" height="80" transform="translate(854 371)"/>
    </clipPath>
  </defs>
  <g id="视频调度" class="cls-2" transform="translate(-854 -371)">
    <path id="视频调度-2" data-name="视频调度" class="cls-1" d="M-6336,7490h-52a4.006,4.006,0,0,1-4-4v-42a4.006,4.006,0,0,1,4-4h52a4,4,0,0,1,4,4v42A4,4,0,0,1-6336,7490Zm-31-38.208a4.009,4.009,0,0,0-4,4.005v16.4a4.009,4.009,0,0,0,4,4.006,3.942,3.942,0,0,0,1.938-.509l14.764-8.2a3.948,3.948,0,0,0,2.057-3.495,3.951,3.951,0,0,0-2.057-3.5l-14.764-8.2a3.942,3.942,0,0,0-1.935-.509Zm50.99,31.342a3.944,3.944,0,0,1-1.968-.526l-10.027-5.69v-23.837l10.027-5.69a3.945,3.945,0,0,1,1.968-.528,4.075,4.075,0,0,1,2.788,1.128,3.949,3.949,0,0,1,1.216,2.878v28.262a3.94,3.94,0,0,1-1.216,2.876A4.066,4.066,0,0,1-6316,7483.135Z" transform="translate(7246.001 -7056)"/>
  </g>
</svg>
