<svg xmlns="http://www.w3.org/2000/svg" xmlns:xlink="http://www.w3.org/1999/xlink" width="80" height="80" viewBox="0 0 80 80">
  <defs>
    <style>
      .cls-1 {
        fill: #fff;
      }

      .cls-2 {
        clip-path: url(#clip-path);
      }
    </style>
    <clipPath id="clip-path">
      <rect id="矩形_4111" data-name="矩形 4111" class="cls-1" width="80" height="80" transform="translate(989 181)"/>
    </clipPath>
  </defs>
  <g id="语音调度" class="cls-2" transform="translate(-989 -181)">
    <path id="语音调度-2" data-name="语音调度" class="cls-1" d="M-6381,7516a3,3,0,0,1-3-3,3,3,0,0,1,3-3h14v-7.151a28.721,28.721,0,0,1-8.287-2.125,28.9,28.9,0,0,1-9.218-6.215,28.865,28.865,0,0,1-6.215-9.218,28.771,28.771,0,0,1-2.134-8.368A3,3,0,0,1-6393,7476a3,3,0,0,1,3-3,3,3,0,0,1,3,3h.085A23.138,23.138,0,0,0-6364,7497a23.14,23.14,0,0,0,22.914-21h.087a3,3,0,0,1,3-3,3,3,0,0,1,3,3,2.937,2.937,0,0,1-.147.924,28.8,28.8,0,0,1-2.133,8.366,28.89,28.89,0,0,1-6.215,9.218,28.922,28.922,0,0,1-9.218,6.215,28.678,28.678,0,0,1-8.288,2.125V7510h14a3,3,0,0,1,3,3,3,3,0,0,1-3,3Zm2-42v-16a15,15,0,0,1,15-15,15,15,0,0,1,15,15v16a15,15,0,0,1-15,15A15,15,0,0,1-6379,7474Z" transform="translate(7392 -7259)"/>
  </g>
</svg>
