<svg xmlns="http://www.w3.org/2000/svg" xmlns:xlink="http://www.w3.org/1999/xlink" width="80" height="80" viewBox="0 0 80 80">
  <defs>
    <style>
      .cls-1 {
        fill: #fff;
      }

      .cls-2 {
        clip-path: url(#clip-path);
      }

      .cls-3 {
        fill: rgba(255,255,255,0.3);
      }
    </style>
    <clipPath id="clip-path">
      <rect id="矩形_4153" data-name="矩形 4153" class="cls-1" width="80" height="80" transform="translate(1181 2224)"/>
    </clipPath>
  </defs>
  <g id="通讯录2" class="cls-2" transform="translate(-1181 -2224)">
    <g id="通讯录2-2" data-name="通讯录2" transform="translate(6 1366)">
      <path id="减去_174" data-name="减去 174" class="cls-1" d="M-6327,7512h-54a4,4,0,0,1-4-4v-3h4v1a2,2,0,0,0,2,2h50a2,2,0,0,0,2-2v-58a2,2,0,0,0-2-2h-50a2,2,0,0,0-2,2v1h-4v-3a4,4,0,0,1,4-4h54a4,4,0,0,1,4,4v62A4,4,0,0,1-6327,7512Zm-54-23h-4v-4h4v4Zm0-20h-4v-4h4v4Z" transform="translate(7573 -6579)"/>
      <rect id="矩形_3653" data-name="矩形 3653" class="cls-1" width="14" height="8" rx="4" transform="translate(1180 874)"/>
      <rect id="矩形_3654" data-name="矩形 3654" class="cls-1" width="14" height="8" rx="4" transform="translate(1180 894)"/>
      <rect id="矩形_3655" data-name="矩形 3655" class="cls-1" width="14" height="8" rx="4" transform="translate(1180 914)"/>
      <rect id="矩形_3657" data-name="矩形 3657" class="cls-3" width="46" height="54" rx="2" transform="translate(1196 871)"/>
      <path id="联合_458" data-name="联合 458" class="cls-1" d="M-6389,7468a3,3,0,0,1-3-3,9,9,0,0,1,9-9h6a9,9,0,0,1,9,9,3,3,0,0,1-3,3Zm2-21a7,7,0,0,1,7-7,7,7,0,0,1,7,7,7,7,0,0,1-7,7A7,7,0,0,1-6387,7447Z" transform="translate(7600 -6555.999)"/>
    </g>
  </g>
</svg>
