<svg xmlns="http://www.w3.org/2000/svg" xmlns:xlink="http://www.w3.org/1999/xlink" width="80" height="80" viewBox="0 0 80 80">
  <defs>
    <style>
      .cls-1 {
        fill: #fff;
      }

      .cls-2 {
        clip-path: url(#clip-path);
      }

      .cls-3 {
        fill: rgba(255,255,255,0.3);
      }
    </style>
    <clipPath id="clip-path">
      <rect id="矩形_4152" data-name="矩形 4152" class="cls-1" width="80" height="80" transform="translate(921 2224)"/>
    </clipPath>
  </defs>
  <g id="隐患排查2" class="cls-2" transform="translate(-921 -2224)">
    <g id="隐患排查2-2" data-name="隐患排查2" transform="translate(2.05 1364.049)">
      <path id="联合_540" data-name="联合 540" class="cls-3" d="M-6345.173,6232.821a16,16,0,0,1,16-16,16,16,0,0,1,16,16,16,16,0,0,1-16,16A16,16,0,0,1-6345.173,6232.821Zm-2.236,8.228h-40.583a3.958,3.958,0,0,1-3.468-2.007,3.956,3.956,0,0,1,.011-4.006l32.042-55.047a3.963,3.963,0,0,1,3.457-1.989,3.963,3.963,0,0,1,3.458,1.989l19.342,33.229a20.048,20.048,0,0,0-16.021,19.6,19.84,19.84,0,0,0,1.765,8.227h0Z" transform="translate(7311.951 -5313.048)"/>
      <path id="联合_539" data-name="联合 539" class="cls-1" d="M-6323.173,6241.651l-2.939-2.939a7.952,7.952,0,0,1-4.062,1.11,8.009,8.009,0,0,1-8-8,8.009,8.009,0,0,1,8-8,8.011,8.011,0,0,1,8,8,7.937,7.937,0,0,1-1.11,4.062l2.938,2.939a2,2,0,0,1,0,2.828,1.994,1.994,0,0,1-1.414.586A2,2,0,0,1-6323.173,6241.651Zm-11-9.829a4,4,0,0,0,4,4,4,4,0,0,0,4-4,4.006,4.006,0,0,0-4-4A4,4,0,0,0-6334.172,6231.822Zm-13.236,9.228h-40.585a3.953,3.953,0,0,1-3.466-2.008,3.945,3.945,0,0,1,.011-4l32.041-55.049a3.962,3.962,0,0,1,3.457-1.988,3.961,3.961,0,0,1,3.459,1.988l19.344,33.23a20.018,20.018,0,0,0-3.95,1.235l-17.125-29.433a1.976,1.976,0,0,0-1.728-.995,1.979,1.979,0,0,0-1.729.995l-28.521,49.021a1.985,1.985,0,0,0,0,2.005,1.982,1.982,0,0,0,1.733,1h35.75a19.746,19.746,0,0,0,1.317,4h0Zm-12.421-11.185a3.674,3.674,0,0,1,3.7-3.651,3.674,3.674,0,0,1,3.7,3.651,3.673,3.673,0,0,1-3.7,3.651A3.673,3.673,0,0,1-6359.83,6229.865Zm0-11v-20a3.7,3.7,0,0,1,3.7-3.7,3.7,3.7,0,0,1,3.7,3.7v20a3.7,3.7,0,0,1-3.7,3.7A3.7,3.7,0,0,1-6359.83,6218.865Z" transform="translate(7311.95 -5313.049)"/>
    </g>
  </g>
</svg>
