<svg xmlns="http://www.w3.org/2000/svg" xmlns:xlink="http://www.w3.org/1999/xlink" width="80" height="80" viewBox="0 0 80 80">
  <defs>
    <style>
      .cls-1 {
        fill: #fff;
      }

      .cls-2 {
        clip-path: url(#clip-path);
      }

      .cls-3 {
        fill: rgba(255,255,255,0.3);
      }
    </style>
    <clipPath id="clip-path">
      <rect id="矩形_4158" data-name="矩形 4158" class="cls-1" width="80" height="80" transform="translate(662 2475)"/>
    </clipPath>
  </defs>
  <g id="教育培训2" class="cls-2" transform="translate(-662 -2475)">
    <g id="教育培训2-2" data-name="教育培训2" transform="translate(-2.403 1351.03)">
      <path id="减去_198" data-name="减去 198" class="cls-3" d="M28.74,28.983a44.052,44.052,0,0,1-17.316-3.206c-4.664-2.061-7.385-4.829-7.661-7.794H3.739V-1.369L26.592,8.6a5.048,5.048,0,0,0,1.382.385,3.349,3.349,0,0,0,.46.031h.01a3.964,3.964,0,0,0,.46-.027,5.182,5.182,0,0,0,1.374-.384l.01,0L53.74-1.631V17.983h-.023c-.276,2.965-3,5.733-7.662,7.794A44.05,44.05,0,0,1,28.74,28.983Z" transform="translate(676.261 1166.017)"/>
      <path id="减去_245" data-name="减去 245" class="cls-1" d="M-6351.7,7480.355h-.007a4.265,4.265,0,0,1-.464-.028,4.946,4.946,0,0,1-1.377-.387l-35.615-15.544a5.069,5.069,0,0,1-1.992-1.586,4.248,4.248,0,0,1-.847-2.626v-.013a4.266,4.266,0,0,1,.847-2.628,5.009,5.009,0,0,1,1.992-1.584l35.613-15.541a4.977,4.977,0,0,1,1.38-.387,3.036,3.036,0,0,1,.46-.03h.011a3.143,3.143,0,0,1,.46.028,5.2,5.2,0,0,1,1.369.381l.007,0,.008,0,35.611,15.541a5.026,5.026,0,0,1,2,1.6,4.271,4.271,0,0,1,.839,2.615v.013a4.272,4.272,0,0,1-.839,2.615,5.042,5.042,0,0,1-2,1.6l-7.812,3.409-4.948-2.421,11.563-5.18L-6351.7,7444l-36.277,16.205,36.277,16.244,18.75-8.4,4.824,2.407-21.727,9.483a5.065,5.065,0,0,1-1.384.385A3.436,3.436,0,0,1-6351.7,7480.355Z" transform="translate(7056.403 -6309.03)"/>
      <path id="联合_400" data-name="联合 400" class="cls-1" d="M-6361.066,7477.584l-4.242-4.244a2,2,0,0,1,0-2.829l3.086-3.085v-9.945L-6396,7440.9a5.267,5.267,0,0,1,6.88-2.408l28.682,14.35q.281.16.531.31a3.973,3.973,0,0,1,1.515.952,3.983,3.983,0,0,1,1.158,2.507c.01.1.013.21.013.321v10.356l3.228,3.228a2,2,0,0,1,0,2.829l-4.241,4.244a2,2,0,0,1-1.416.585A2,2,0,0,1-6361.066,7477.584Z" transform="translate(7098.222 -6297.926)"/>
      <path id="减去_244" data-name="减去 244" class="cls-3" d="M-6353.4,7474.53l-38.6-17.286,38.6-17.245,38.588,17.245-12.734,5.7-26.116-12.78c-1.242-.606-2.185-1.124-2.191-1.127a4.389,4.389,0,0,0-.844,3.211,4.805,4.805,0,0,0,2.615,3.14l20.535,10.245-19.852,8.893Z" transform="translate(7058.098 -6306.072)"/>
      <path id="路径_693" data-name="路径 693" class="cls-1" d="M28.74,28.983a44.052,44.052,0,0,1-17.316-3.206c-4.664-2.061-7.385-4.829-7.661-7.794H3.739V-3.361l4,1.7V15.056h.02c.232,2.676,2.517,5.174,6.435,7.034a34.767,34.767,0,0,0,14.545,2.893A34.77,34.77,0,0,0,43.285,22.09c3.918-1.86,6.2-4.358,6.435-7.034h.02V-1.885l4-1.788V17.983h-.023c-.276,2.965-3,5.733-7.662,7.794A44.05,44.05,0,0,1,28.74,28.983Z" transform="translate(676.261 1168.017)"/>
    </g>
  </g>
</svg>
