<svg xmlns="http://www.w3.org/2000/svg" xmlns:xlink="http://www.w3.org/1999/xlink" width="80" height="80" viewBox="0 0 80 80">
  <defs>
    <style>
      .cls-1 {
        fill: #fff;
      }

      .cls-2 {
        clip-path: url(#clip-path);
      }

      .cls-3 {
        fill: rgba(255,255,255,0.3);
      }
    </style>
    <clipPath id="clip-path">
      <rect id="矩形_4160" data-name="矩形 4160" class="cls-1" width="80" height="80" transform="translate(1181 2475)"/>
    </clipPath>
  </defs>
  <g id="消息2" class="cls-2" transform="translate(-1181 -2475)">
    <g id="消息2-2" data-name="消息2" transform="translate(4.001 1732)">
      <g id="组_118" data-name="组 118">
        <path id="减去_202" data-name="减去 202" class="cls-3" d="M-6386,7482h-2a6.007,6.007,0,0,1-6-6v-32a6.008,6.008,0,0,1,6-6h56a6.007,6.007,0,0,1,6,6v2h-56a4,4,0,0,0-4,4v32Z" transform="translate(7571 -6688)"/>
        <path id="减去_341" data-name="减去 341" class="cls-3" d="M-6378,7491.528V7484h-10a4,4,0,0,1-4-4v-36a4,4,0,0,1,4-4h60a4,4,0,0,1,4,4v36a4,4,0,0,1-4,4h-37.243l-8.449,9.076a2.4,2.4,0,0,1-1.89.923A2.446,2.446,0,0,1-6378,7491.528Z" transform="translate(7581.001 -6678)"/>
        <path id="减去_340" data-name="减去 340" class="cls-1" d="M-6375.583,7496a2.448,2.448,0,0,1-2.417-2.472V7486h-10a4,4,0,0,1-4-4v-36a4,4,0,0,1,4-4h60a4,4,0,0,1,4,4v36a4,4,0,0,1-4,4h-37.243l-8.448,9.075A2.4,2.4,0,0,1-6375.583,7496ZM-6386,7446a2,2,0,0,0-2,2v32a2,2,0,0,0,2,2h12c0,5.467,0,5.583,0,5.585,0,.772.256,1.2.722,1.2a1.643,1.643,0,0,0,1.05-.557l5.838-6.227H-6330a2,2,0,0,0,2-2v-32a2,2,0,0,0-2-2Z" transform="translate(7581.001 -6680)"/>
      </g>
      <path id="联合_475" data-name="联合 475" class="cls-1" d="M-13399,14789a6,6,0,0,1,6-6,6,6,0,0,1,6,6,6,6,0,0,1-6,6A6,6,0,0,1-13399,14789Zm-20,0a6,6,0,0,1,6-6,6,6,0,0,1,6,6,6,6,0,0,1-6,6A6,6,0,0,1-13419,14789Zm-20,0a6,6,0,0,1,6-6,6,6,0,0,1,6,6,6,6,0,0,1-6,6A6,6,0,0,1-13439,14789Z" transform="translate(14636 -14005)"/>
    </g>
  </g>
</svg>
