<svg xmlns="http://www.w3.org/2000/svg" xmlns:xlink="http://www.w3.org/1999/xlink" width="80" height="80" viewBox="0 0 80 80">
  <defs>
    <style>
      .cls-1 {
        fill: #fff;
      }

      .cls-2 {
        clip-path: url(#clip-path);
      }

      .cls-3 {
        fill: rgba(255,255,255,0.3);
      }
    </style>
    <clipPath id="clip-path">
      <rect id="矩形_4167" data-name="矩形 4167" class="cls-1" width="80" height="80" transform="translate(1181 2677)"/>
    </clipPath>
  </defs>
  <g id="资产2" class="cls-2" transform="translate(-1181 -2677)">
    <g id="资产2-2" data-name="资产2" transform="translate(265.001 1672.687)">
      <path id="减去_215" data-name="减去 215" class="cls-1" d="M-6345.1,7459.15h-34.989l22.779-13.15a3.993,3.993,0,0,1,2-.537,4.015,4.015,0,0,1,3.468,2l6.746,11.685Z" transform="translate(7326 -6436.15)"/>
      <rect id="矩形_3956" data-name="矩形 3956" class="cls-3" width="72" height="52" rx="4" transform="translate(920 1027)"/>
      <path id="减去_216" data-name="减去 216" class="cls-1" d="M-6362,7456h-20a8.008,8.008,0,0,1-8-8,8.009,8.009,0,0,1,8-8h20v16Zm-20-12a4,4,0,0,0-4,4,4,4,0,0,0,4,4,4,4,0,0,0,4-4A4.005,4.005,0,0,0-6382,7444Z" transform="translate(7354 -6395)"/>
      <path id="减去_350" data-name="减去 350" class="cls-1" d="M-6324,7492h-64a4,4,0,0,1-4-4v-44a4,4,0,0,1,4-4h64a4,4,0,0,1,4,4v44A4,4,0,0,1-6324,7492Zm-62-48a2,2,0,0,0-2,2v40a2,2,0,0,0,2,2h60a2,2,0,0,0,2-2v-40a2,2,0,0,0-2-2Z" transform="translate(7312 -6413)"/>
    </g>
  </g>
</svg>
