<svg xmlns="http://www.w3.org/2000/svg" xmlns:xlink="http://www.w3.org/1999/xlink" width="80" height="80" viewBox="0 0 80 80">
  <defs>
    <style>
      .cls-1 {
        fill: #fff;
      }

      .cls-2 {
        clip-path: url(#clip-path);
      }

      .cls-3 {
        fill: rgba(255,255,255,0.3);
      }
    </style>
    <clipPath id="clip-path">
      <rect id="矩形_4170" data-name="矩形 4170" class="cls-1" width="80" height="80" transform="translate(136 2884)"/>
    </clipPath>
  </defs>
  <g id="风险防控2" class="cls-2" transform="translate(-136 -2884)">
    <g id="风险防控2-2" data-name="风险防控2" transform="translate(-263.999 1156.723)">
      <path id="减去_418" data-name="减去 418" class="cls-3" d="M-6330,7573.339h0a36.686,36.686,0,0,1-11.9-4.522,37.08,37.08,0,0,1-9.511-8.11,36.867,36.867,0,0,1-6.307-10.878A36.884,36.884,0,0,1-6360,7537l0-23.337a37.6,37.6,0,0,0,5,.335,36.908,36.908,0,0,0,25-9.722,36.9,36.9,0,0,0,25,9.722,37.557,37.557,0,0,0,5-.335V7537a36.926,36.926,0,0,1-2.286,12.828,36.865,36.865,0,0,1-6.307,10.878,37.074,37.074,0,0,1-9.512,8.11,36.679,36.679,0,0,1-11.9,4.522Z" transform="translate(6770 -5772)"/>
      <path id="减去_413" data-name="减去 413" class="cls-1" d="M-6362,7509.063h0a36.689,36.689,0,0,1-11.9-4.523,37.053,37.053,0,0,1-9.511-8.109,36.839,36.839,0,0,1-6.307-10.879,36.892,36.892,0,0,1-2.284-12.828l0-23.336a37.832,37.832,0,0,0,5,.335,36.914,36.914,0,0,0,25-9.722,36.9,36.9,0,0,0,25,9.722,37.5,37.5,0,0,0,5-.335v23.336a36.91,36.91,0,0,1-2.286,12.828,36.909,36.909,0,0,1-6.305,10.879,37.04,37.04,0,0,1-9.513,8.109,36.666,36.666,0,0,1-11.9,4.523Zm-26-55.352v19.013a32.905,32.905,0,0,0,1.971,11.264,32.894,32.894,0,0,0,5.454,9.594,33.111,33.111,0,0,0,8.241,7.229,32.76,32.76,0,0,0,10.333,4.17,32.722,32.722,0,0,0,10.333-4.17,33.111,33.111,0,0,0,8.241-7.229,32.862,32.862,0,0,0,5.454-9.594,32.883,32.883,0,0,0,1.973-11.266V7453.71c-.345.008-.682.011-1,.011a40.606,40.606,0,0,1-25-8.5,40.609,40.609,0,0,1-25,8.5c-.347,0-.683,0-1-.011Z" transform="translate(6801.999 -5707.723)"/>
      <path id="联合_510" data-name="联合 510" class="cls-1" d="M-6382.667,7462.8H-6392l14.638-22.8-2.971,15.2H-6371l-14.638,22.8Z" transform="translate(6821.001 -5692.002)"/>
    </g>
  </g>
</svg>
