<svg xmlns="http://www.w3.org/2000/svg" xmlns:xlink="http://www.w3.org/1999/xlink" width="80" height="80" viewBox="0 0 80 80">
  <defs>
    <style>
      .cls-1 {
        fill: #fff;
      }

      .cls-2 {
        clip-path: url(#clip-path);
      }

      .cls-3 {
        fill: rgba(255,255,255,0.2);
      }
    </style>
    <clipPath id="clip-path">
      <rect id="矩形_4151" data-name="矩形 4151" class="cls-1" width="80" height="80" transform="translate(662 2224)"/>
    </clipPath>
  </defs>
  <g id="录音2" class="cls-2" transform="translate(-662 -2224)">
    <g id="录音2-2" data-name="录音2" transform="translate(3 1363.001)">
      <g id="组_116" data-name="组 116" transform="translate(-4 370)">
        <path id="减去_170" data-name="减去 170" class="cls-3" d="M-6322,7508h-66a4,4,0,0,1-4-4v-52a4,4,0,0,1,4-4h6.977l4.87,9.8a4.49,4.49,0,0,0,1.453,1.607,5.31,5.31,0,0,0,2.212.6h34.976a5.311,5.311,0,0,0,2.212-.6,4.479,4.479,0,0,0,1.453-1.6l4.872-9.8H-6322a4,4,0,0,1,4,4v52A4,4,0,0,1-6322,7508Z" transform="translate(7058 -6947)"/>
        <circle id="椭圆_834" data-name="椭圆 834" class="cls-1" cx="8" cy="8" r="8" transform="translate(679 527)"/>
        <circle id="椭圆_835" data-name="椭圆 835" class="cls-1" cx="8" cy="8" r="8" transform="translate(711 527)"/>
        <rect id="矩形_3646" data-name="矩形 3646" class="cls-1" width="40" height="8" rx="4" transform="translate(683 501)"/>
      </g>
      <path id="减去_238" data-name="减去 238" class="cls-1" d="M-6322,7508h-66a4,4,0,0,1-4-4v-52a4,4,0,0,1,4-4h6.976l1.989,4H-6386a2,2,0,0,0-2,2v48a2,2,0,0,0,2,2h62a2,2,0,0,0,2-2v-48a2,2,0,0,0-2-2h-6.966l1.989-4H-6322a4,4,0,0,1,4,4v52A4,4,0,0,1-6322,7508Z" transform="translate(7054.001 -6577)"/>
    </g>
  </g>
</svg>
