<svg xmlns="http://www.w3.org/2000/svg" xmlns:xlink="http://www.w3.org/1999/xlink" width="80" height="80" viewBox="0 0 80 80">
  <defs>
    <style>
      .cls-1 {
        fill: #fff;
      }

      .cls-2 {
        clip-path: url(#clip-path);
      }

      .cls-3 {
        fill: rgba(255,255,255,0.3);
        stroke: #fff;
        stroke-width: 4px;
      }

      .cls-4 {
        stroke: none;
      }

      .cls-5 {
        fill: none;
      }
    </style>
    <clipPath id="clip-path">
      <rect id="矩形_4163" data-name="矩形 4163" class="cls-1" width="80" height="80" transform="translate(136 2677)"/>
    </clipPath>
  </defs>
  <g id="拓扑2" class="cls-2" transform="translate(-136 -2677)">
    <g id="拓扑2-2" data-name="拓扑2" transform="translate(6 1281)">
      <g id="矩形_3806" data-name="矩形 3806" class="cls-3" transform="translate(133 1406)">
        <path class="cls-4" d="M4,0H70a4,4,0,0,1,4,4V48a0,0,0,0,1,0,0H0a0,0,0,0,1,0,0V4A4,4,0,0,1,4,0Z"/>
        <rect class="cls-5" x="2" y="2" width="70" height="44" rx="2"/>
      </g>
      <path id="矩形_3805" data-name="矩形 3805" class="cls-1" d="M0,0H74a0,0,0,0,1,0,0V4a4,4,0,0,1-4,4H4A4,4,0,0,1,0,4V0A0,0,0,0,1,0,0Z" transform="translate(133 1458)"/>
      <g id="组_128" data-name="组 128" transform="translate(-336 1113)">
        <rect id="矩形_3803" data-name="矩形 3803" class="cls-1" width="4" height="12" rx="2" transform="translate(487 317)"/>
        <g id="组_124" data-name="组 124" transform="translate(0 1)">
          <rect id="矩形_3802" data-name="矩形 3802" class="cls-1" width="12" height="12" rx="6" transform="translate(483 300)"/>
          <rect id="矩形_3798" data-name="矩形 3798" class="cls-1" width="26" height="4" rx="2" transform="translate(499 304)"/>
          <rect id="矩形_3804" data-name="矩形 3804" class="cls-1" width="26" height="4" rx="2" transform="translate(487 324)"/>
          <rect id="矩形_3799" data-name="矩形 3799" class="cls-1" width="4" height="12" rx="2" transform="translate(521 304)"/>
          <rect id="矩形_3797" data-name="矩形 3797" class="cls-1" width="12" height="12" rx="6" transform="translate(517 320)"/>
        </g>
      </g>
    </g>
  </g>
</svg>
